<svg width="48" height="48" viewBox="0 0 48 48" fill="none" xmlns="http://www.w3.org/2000/svg">
<path d="M26.4224 25.5H21.4497V28C21.4497 29.3854 22.5675 30.4998 23.936 30.5C25.3047 30.5 26.4224 29.3855 26.4224 28V25.5ZM29.4224 28C29.4224 31.0329 26.971 33.5 23.936 33.5C20.9012 33.4998 18.4497 31.0328 18.4497 28V24C18.4497 23.1716 19.1213 22.5 19.9497 22.5H27.9224C28.7508 22.5 29.4224 23.1716 29.4224 24V28Z" fill="#198039"/>
<path d="M8.49316 24V41.5H39.3799V24H42.3799V43C42.3799 43.8284 41.7082 44.4999 40.8799 44.5H6.99316C6.16474 44.5 5.49316 43.8284 5.49316 43V24H8.49316Z" fill="#198039"/>
<path d="M30.9766 3.5C31.805 3.5 32.4766 4.17157 32.4766 5V12H29.4766V6.5H18.5234V12H15.5234V5C15.5234 4.17157 16.195 3.5 17.0234 3.5H30.9766Z" fill="#198039"/>
<path d="M44.4773 22.5684L36.3914 29.5215H27.8738V26.5215H35.28L41.4773 21.1895V13.6055H6.46948V21.2891L12.5652 26.5215H20.0222V29.5215H11.4558L11.0339 29.1602L3.46948 22.668V12.125C3.46974 11.2906 4.14517 10.6057 4.98901 10.6055H42.9578C43.8016 10.6057 44.477 11.2906 44.4773 12.125V22.5684Z" fill="#198039"/>
</svg>
