<svg width="37" height="37" viewBox="0 0 37 37" fill="none" xmlns="http://www.w3.org/2000/svg">
<path d="M13.5926 24.897V27.9149H10.5615V24.897H13.5926ZM19.6225 24.897V27.9149H16.5899V24.897H19.6225ZM13.5926 18.8613V21.8792H10.5615V18.8613H13.5926ZM19.6225 18.8613V21.8792H16.5899V18.8613H19.6225ZM25.6508 18.8613V21.8792H22.6197V18.8613H25.6508Z" fill="#198039"/>
<path d="M10.9397 3.01758V9.05329H8.67627V3.01758H10.9397ZM27.5379 3.01758V9.05329H25.2745V3.01758H27.5379Z" fill="#198039"/>
<path d="M31.6874 4.90381C32.3124 4.90381 32.8191 5.41049 32.8191 6.03551V33.1962C32.8191 33.8212 32.3124 34.3279 31.6874 34.3279H4.52672C3.9017 34.3279 3.39502 33.8212 3.39502 33.1962V6.03551C3.39502 5.41049 3.9017 4.90381 4.52672 4.90381H31.6874ZM5.65841 32.0645H30.5557V7.1672H5.65841V32.0645Z" fill="#198039"/>
<path d="M31.6874 12.4484C32.3124 12.4484 32.8191 12.955 32.8191 13.5801C32.8191 14.2051 32.3124 14.7118 31.6874 14.7118H4.52672C3.9017 14.7118 3.39502 14.2051 3.39502 13.5801C3.39502 12.955 3.9017 12.4484 4.52672 12.4484H31.6874Z" fill="#198039"/>
</svg>
