<svg width="17" height="18" viewBox="0 0 17 18" fill="none" xmlns="http://www.w3.org/2000/svg">
<path d="M5.632 12.0833V13.75H3.95801V12.0833H5.632ZM8.96208 12.0833V13.75H7.28727V12.0833H8.96208ZM5.632 8.75V10.4167H3.95801V8.75H5.632ZM8.96208 8.75V10.4167H7.28727V8.75H8.96208ZM12.2913 8.75V10.4167H10.6174V8.75H12.2913Z" fill="black"/>
<path d="M4.16699 0V3.33333H2.91699V0H4.16699ZM13.3337 0V3.33333H12.0837V0H13.3337Z" fill="black"/>
<path d="M15.625 1.04102C15.9702 1.04102 16.25 1.32084 16.25 1.66602V16.666C16.25 17.0112 15.9702 17.291 15.625 17.291H0.625C0.279822 17.291 0 17.0112 0 16.666V1.66602C0 1.32084 0.279822 1.04102 0.625 1.04102H15.625ZM1.25 16.041H15V2.29102H1.25V16.041Z" fill="black"/>
<path d="M15.625 5.20801C15.9702 5.20801 16.25 5.48783 16.25 5.83301C16.25 6.17819 15.9702 6.45801 15.625 6.45801H0.625C0.279822 6.45801 0 6.17819 0 5.83301C0 5.48783 0.279822 5.20801 0.625 5.20801H15.625Z" fill="black"/>
</svg>
