<svg width="20" height="20" viewBox="0 0 20 20" fill="none" xmlns="http://www.w3.org/2000/svg">
<path fill-rule="evenodd" clip-rule="evenodd" d="M7.50008 1.66671C7.50008 1.20647 7.12699 0.833374 6.66675 0.833374C6.20651 0.833374 5.83341 1.20647 5.83341 1.66671V2.50004H5.00008C3.15913 2.50004 1.66675 3.99243 1.66675 5.83337V15.8334C1.66675 17.6743 3.15913 19.1667 5.00008 19.1667H15.0001C16.841 19.1667 18.3334 17.6743 18.3334 15.8334V5.83337C18.3334 3.99242 16.841 2.50004 15.0001 2.50004H14.1667V1.66671C14.1667 1.20647 13.7937 0.833374 13.3334 0.833374C12.8732 0.833374 12.5001 1.20647 12.5001 1.66671V2.50004H7.50008V1.66671ZM5.00008 4.16671H5.83341V5.00004C5.83341 5.46028 6.20651 5.83337 6.66675 5.83337C7.12699 5.83337 7.50008 5.46028 7.50008 5.00004V4.16671H12.5001V5.00004C12.5001 5.46028 12.8732 5.83337 13.3334 5.83337C13.7937 5.83337 14.1667 5.46028 14.1667 5.00004V4.16671H15.0001C15.9206 4.16671 16.6667 4.9129 16.6667 5.83337V7.50004H3.33341V5.83337C3.33341 4.9129 4.07961 4.16671 5.00008 4.16671Z" fill="white"/>
</svg>
