<svg width="24" height="24" viewBox="0 0 24 24" fill="none" xmlns="http://www.w3.org/2000/svg">
<path d="M9.00821 16.5V18.5H6.99942V16.5H9.00821ZM13.0043 16.5V18.5H10.9945V16.5H13.0043ZM9.00821 12.5V14.5H6.99942V12.5H9.00821ZM13.0043 12.5V14.5H10.9945V12.5H13.0043ZM16.9994 12.5V14.5H14.9906V12.5H16.9994Z" fill="black"/>
<path d="M7.25 2V6H5.75V2H7.25ZM18.25 2V6H16.75V2H18.25Z" fill="black"/>
<path d="M21 3.25C21.4142 3.25 21.75 3.58579 21.75 4V22C21.75 22.4142 21.4142 22.75 21 22.75H3C2.58579 22.75 2.25 22.4142 2.25 22V4C2.25 3.58579 2.58579 3.25 3 3.25H21ZM3.75 21.25H20.25V4.75H3.75V21.25Z" fill="black"/>
<path d="M21 8.25C21.4142 8.25 21.75 8.58579 21.75 9C21.75 9.41421 21.4142 9.75 21 9.75H3C2.58579 9.75 2.25 9.41421 2.25 9C2.25 8.58579 2.58579 8.25 3 8.25H21Z" fill="black"/>
</svg>
