<svg width="19" height="17" viewBox="0 0 19 17" fill="none" xmlns="http://www.w3.org/2000/svg">
<path d="M0.75 8.71875C0.75 6.14076 0.75 4.85176 1.60427 4.05088C2.45854 3.25 3.83347 3.25 6.58333 3.25H11.5833C14.3332 3.25 15.7081 3.25 16.5624 4.05088C17.4167 4.85176 17.4167 6.14076 17.4167 8.71875V10.2812C17.4167 12.8592 17.4167 14.1482 16.5624 14.9491C15.7081 15.75 14.3332 15.75 11.5833 15.75H6.58333C3.83347 15.75 2.45854 15.75 1.60427 14.9491C0.75 14.1482 0.75 12.8592 0.75 10.2812V8.71875Z" stroke="#52525B" stroke-width="1.5" stroke-linecap="round" stroke-linejoin="round"/>
<path d="M6.58301 9.5H11.583M9.08301 7L9.08301 12" stroke="#52525B" stroke-width="1.5" stroke-linecap="round" stroke-linejoin="round"/>
<path d="M13.2493 3.25C13.2493 1.18167 12.8177 0.75 10.7493 0.75H7.41602C5.34768 0.75 4.91602 1.18167 4.91602 3.25" stroke="#52525B" stroke-width="1.5" stroke-linecap="round" stroke-linejoin="round"/>
</svg>
