<svg width="16" height="19" viewBox="0 0 16 19" fill="none" xmlns="http://www.w3.org/2000/svg">
<path d="M7.83333 0.75C3.92132 0.75 0.75 3.76486 0.75 7.48388C0.75 9.61043 1.63542 11.2639 3.40625 12.7408C4.65443 13.7819 6.16655 15.511 7.07443 16.9126C7.5098 17.5847 8.12555 17.5847 8.59224 16.9126C9.54607 15.5388 11.0122 13.7819 12.2604 12.7408C14.0312 11.2639 14.9167 9.61043 14.9167 7.48388C14.9167 3.76486 11.7453 0.75 7.83333 0.75Z" stroke="#52525B" stroke-width="1.5" stroke-linejoin="round"/>
<path d="M6.16602 4.9165V7.4165M6.16602 9.9165L6.16602 7.4165M9.49935 4.9165V7.4165M9.49935 9.9165V7.4165M9.49935 7.4165H6.16602" stroke="#52525B" stroke-width="1.5" stroke-linecap="round"/>
</svg>
