<svg width="24" height="24" viewBox="0 0 24 24" fill="none" xmlns="http://www.w3.org/2000/svg">
<path d="M19.25 10.0811C19.25 6.02533 15.997 2.75 12 2.75C8.00301 2.75 4.75 6.02533 4.75 10.0811C4.7501 12.3898 5.63534 14.1783 7.49707 15.8281C8.69718 16.8916 10.7457 18.995 12.0127 20.6943C13.2893 19.0227 15.2918 16.9014 16.5029 15.8281C18.3647 14.1783 19.2499 12.3898 19.25 10.0811ZM20.75 10.0811C20.7499 12.8756 19.6351 15.0555 17.4971 16.9502C16.1194 18.1711 13.6575 20.8347 12.6279 22.4102C12.4871 22.6256 12.2456 22.754 11.9883 22.75C11.731 22.746 11.4934 22.6103 11.3594 22.3906C10.3923 20.8044 7.89404 18.183 6.50293 16.9502C4.36487 15.0555 3.25011 12.8756 3.25 10.0811C3.25 5.21113 7.16043 1.25 12 1.25C16.8396 1.25 20.75 5.21113 20.75 10.0811Z" fill="white"/>
<path d="M10.75 7V9.25L13.25 9.25V7H14.75L14.75 13H13.25V10.75L10.75 10.75V13H9.25L9.25 7L10.75 7Z" fill="white"/>
</svg>
