<svg width="48" height="48" viewBox="0 0 48 48" fill="none" xmlns="http://www.w3.org/2000/svg">
<path d="M42 4.5C42.8284 4.5 43.5 5.17157 43.5 6V42C43.5 42.8284 42.8284 43.5 42 43.5H6C5.17157 43.5 4.5 42.8284 4.5 42V6C4.5 5.17157 5.17157 4.5 6 4.5H42ZM7.5 40.5H40.5V7.5H7.5V40.5Z" fill="#198039"/>
<path d="M32.5 17C32.5 16.1716 31.8284 15.5 31 15.5C30.1716 15.5 29.5 16.1716 29.5 17C29.5 17.8284 30.1716 18.5 31 18.5C31.8284 18.5 32.5 17.8284 32.5 17ZM35.5 17C35.5 19.4853 33.4853 21.5 31 21.5C28.5147 21.5 26.5 19.4853 26.5 17C26.5 14.5147 28.5147 12.5 31 12.5C33.4853 12.5 35.5 14.5147 35.5 17Z" fill="#198039"/>
<path d="M7.84375 24.5057C13.4466 24.3867 18.9237 26.1412 23.2969 29.4744C27.3546 32.5674 30.2225 36.8385 31.4531 41.6268L28.5469 42.3729C27.49 38.2609 25.019 34.5599 21.4785 31.8611C17.6589 28.9497 12.8481 27.4006 7.90625 27.5057C7.89463 27.5059 7.88272 27.5057 7.87109 27.5057C7.28223 27.5042 6.69389 27.5242 6.10742 27.5662L5.89258 24.574C6.54141 24.5275 7.19237 24.5068 7.84375 24.5076V24.5057Z" fill="#198039"/>
<path d="M36.1426 30.502C38.3489 30.5004 40.5267 30.998 42.625 31.9609L41.375 34.6875C39.6398 33.8911 37.8852 33.4981 36.1406 33.5H36.1328C33.0639 33.4871 29.9437 34.6803 26.957 37.1543L25.043 34.8457C28.4595 32.0154 32.2375 30.4878 36.1367 30.502H36.1387L36.1445 30.5L36.1426 30.502Z" fill="#198039"/>
</svg>
