<svg width="28" height="28" viewBox="0 0 28 28" fill="none" xmlns="http://www.w3.org/2000/svg">
<path d="M5.25293 24.5V25.375C6.18087 25.374 7.0705 25.0049 7.72665 24.3487C8.3828 23.6926 8.75189 22.8029 8.75293 21.875H7.87793C7.87723 22.571 7.60045 23.2383 7.10832 23.7304C6.61619 24.2225 5.94891 24.4993 5.25293 24.5Z" fill="#71717A"/>
<path d="M17.0654 6.44133e-07C15.3107 8.96413e-05 13.5865 0.45902 12.064 1.33125C10.5414 2.20348 9.27344 3.45869 8.38581 4.97232C7.49819 6.48595 7.0218 8.20537 7.00393 9.95997C6.98605 11.7146 7.4273 13.4434 8.28389 14.9748L7.78208 16.45L5.61252 13.3136C5.57009 13.2585 5.51561 13.214 5.45326 13.1833C5.39092 13.1527 5.32237 13.1367 5.25289 13.1367C5.18342 13.1367 5.11487 13.1527 5.05252 13.1833C4.99017 13.214 4.93569 13.2585 4.89327 13.3136L0.915955 19.0632C0.395274 19.8073 0.0840343 20.6776 0.0147684 21.5831C-0.0544974 22.4887 0.120755 23.3962 0.522205 24.2108C0.918025 25.0381 1.52884 25.7439 2.29077 26.2543C3.05271 26.7647 3.93779 27.061 4.85346 27.1123C4.98471 27.1202 5.11902 27.125 5.25377 27.125C5.38852 27.125 5.52152 27.1202 5.65495 27.1123C6.57062 27.061 7.4557 26.7647 8.21764 26.2543C8.97957 25.7439 9.59039 25.0381 9.98621 24.2108C10.3877 23.3962 10.5629 22.4887 10.4936 21.5831C10.4244 20.6776 10.1131 19.8073 9.59246 19.0632L9.45683 18.8676L11.5328 18.4651C12.8427 19.3282 14.3362 19.873 15.8942 20.0562C17.4521 20.2393 19.0313 20.0557 20.5057 19.5199C21.98 18.9842 23.3087 18.1111 24.3856 16.9705C25.4625 15.8299 26.2579 14.4533 26.7081 12.9506C27.1584 11.448 27.251 9.86082 26.9788 8.31595C26.7065 6.77108 26.0768 5.31127 25.14 4.05306C24.2031 2.79484 22.9851 1.77309 21.5831 1.06936C20.1812 0.36564 18.6341 -0.000560591 17.0654 6.44133e-07ZM8.87014 19.5615C9.30199 20.1784 9.56015 20.9 9.61765 21.6509C9.67514 22.4018 9.52984 23.1543 9.19696 23.8298C8.86795 24.5168 8.36041 25.1029 7.72739 25.5268C7.09438 25.9506 6.35913 26.1966 5.59852 26.2391C5.36862 26.2535 5.13804 26.2535 4.90814 26.2391C4.14739 26.1967 3.41198 25.9508 2.7788 25.5269C2.14563 25.1031 1.63795 24.5169 1.30883 23.8298C0.975942 23.1543 0.830648 22.4018 0.88814 21.6509C0.945631 20.9 1.2038 20.1784 1.63564 19.5615L5.25289 14.3316L7.43121 17.4816L7.02608 18.6721C7.00148 18.7446 6.99637 18.8224 7.01126 18.8976C7.02616 18.9727 7.06054 19.0427 7.11096 19.1004C7.16095 19.1585 7.22551 19.2023 7.29802 19.2272C7.37053 19.2521 7.44836 19.2572 7.52352 19.2421L8.51621 19.0501L8.87014 19.5615ZM17.0654 19.25C15.211 19.2531 13.3995 18.6917 11.8718 17.6404C11.7989 17.5905 11.7126 17.5638 11.6242 17.5639C11.5963 17.5637 11.5685 17.5663 11.5411 17.5718L8.09664 18.2394L9.17508 15.0693C9.19539 15.0097 9.20262 14.9465 9.19628 14.8839C9.18994 14.8213 9.17017 14.7608 9.13833 14.7066C8.11475 12.9593 7.69709 10.9229 7.95028 8.91377C8.20346 6.90467 9.11332 5.0355 10.5384 3.59685C11.9635 2.15819 13.8239 1.23064 15.8305 0.958406C17.8371 0.686169 19.8775 1.08449 21.6343 2.09145C23.3912 3.09841 24.7662 4.65759 25.5455 6.52661C26.3248 8.39562 26.4649 10.4697 25.9438 12.4266C25.4228 14.3834 24.2698 16.1132 22.6642 17.3472C21.0587 18.5811 19.0904 19.2501 17.0654 19.25Z" fill="#71717A"/>
<path d="M17.0654 1.75C15.4214 1.75 13.8142 2.23752 12.4473 3.15091C11.0803 4.0643 10.0148 5.36253 9.38568 6.88144C8.75653 8.40036 8.59192 10.0717 8.91266 11.6842C9.2334 13.2967 10.0251 14.7778 11.1876 15.9403C12.3501 17.1028 13.8313 17.8945 15.4437 18.2153C17.0562 18.536 18.7276 18.3714 20.2465 17.7422C21.7654 17.1131 23.0636 16.0477 23.977 14.6807C24.8904 13.3137 25.3779 11.7066 25.3779 10.0625C25.3755 7.85863 24.4989 5.74573 22.9406 4.18736C21.3822 2.62899 19.2693 1.75243 17.0654 1.75ZM17.0654 17.5C15.5944 17.5 14.1565 17.0638 12.9334 16.2466C11.7103 15.4293 10.757 14.2677 10.1941 12.9087C9.63115 11.5497 9.48387 10.0542 9.77084 8.61152C10.0578 7.16878 10.7662 5.84355 11.8063 4.80339C12.8465 3.76324 14.1717 3.05489 15.6144 2.76791C17.0572 2.48093 18.5526 2.62822 19.9116 3.19115C21.2707 3.75407 22.4322 4.70736 23.2495 5.93045C24.0667 7.15354 24.5029 8.5915 24.5029 10.0625C24.5007 12.0344 23.7164 13.9249 22.3221 15.3192C20.9278 16.7135 19.0373 17.4978 17.0654 17.5Z" fill="#71717A"/>
<path d="M14.8779 8.75C14.8779 8.28587 14.6936 7.84075 14.3654 7.51256C14.0372 7.18437 13.5921 7 13.1279 7H11.8154C11.6994 7 11.5881 7.04609 11.5061 7.12814C11.424 7.21019 11.3779 7.32147 11.3779 7.4375V12.25H12.2529V10.5H13.1279C13.36 10.5 13.5826 10.5922 13.7466 10.7563C13.9107 10.9204 14.0029 11.1429 14.0029 11.375V12.25H14.8779V11.375C14.8772 11.1257 14.8228 10.8794 14.7184 10.653C14.6141 10.4265 14.4623 10.2251 14.2733 10.0625C14.4623 9.89988 14.6141 9.6985 14.7184 9.47204C14.8228 9.24558 14.8772 8.99933 14.8779 8.75ZM12.2529 9.625V7.875H13.1279C13.36 7.875 13.5826 7.96719 13.7466 8.13128C13.9107 8.29538 14.0029 8.51794 14.0029 8.75C14.0029 8.98206 13.9107 9.20462 13.7466 9.36872C13.5826 9.53281 13.36 9.625 13.1279 9.625H12.2529Z" fill="#71717A"/>
<path d="M18.3779 9.1875H16.6279V7H15.7529V12.25H16.6279V10.0625H18.3779V12.25H19.2529V7H18.3779V9.1875Z" fill="#71717A"/>
<path d="M22.3154 9.1875V7.875H21.4404V9.1875H20.1279V10.0625H21.4404V11.375H22.3154V10.0625H23.6279V9.1875H22.3154Z" fill="#71717A"/>
</svg>
