<svg width="20" height="20" viewBox="0 0 20 20" fill="none" xmlns="http://www.w3.org/2000/svg">
<path d="M18.3332 9.16665V2.08331H1.6665V16.25H8.33317" stroke="#FAFAFA" stroke-width="1.5" stroke-linejoin="round"/>
<path d="M1.6665 5L9.99984 9.16667L18.3332 5" stroke="#FAFAFA" stroke-width="1.5"/>
<path d="M15.8335 14.1667C15.8335 14.857 15.2739 15.4167 14.5835 15.4167C13.8931 15.4167 13.3335 14.857 13.3335 14.1667C13.3335 13.4763 13.8931 12.9167 14.5835 12.9167C15.2739 12.9167 15.8335 13.4763 15.8335 14.1667ZM15.8335 14.1667V14.5834C15.8335 15.2737 16.3931 15.8334 17.0835 15.8334C17.7739 15.8334 18.3335 15.2737 18.3335 14.5834V14.1667C18.3335 12.0956 16.6546 10.4167 14.5835 10.4167C12.5124 10.4167 10.8335 12.0956 10.8335 14.1667C10.8335 16.2378 12.5124 17.9167 14.5835 17.9167" stroke="#FAFAFA" stroke-width="1.5" stroke-linejoin="round"/>
</svg>
