<svg width="20" height="20" viewBox="0 0 20 20" fill="none" xmlns="http://www.w3.org/2000/svg">
<path d="M0.833252 5.44599V15C0.833252 16.3769 1.95635 17.5 3.33325 17.5H16.6666C18.0435 17.5 19.1666 16.3769 19.1666 15V5.44599L18.8034 5.68814L10.4778 11.516C10.1909 11.7169 9.80897 11.7169 9.52203 11.516L1.19646 5.68812L0.833252 5.44599Z" fill="white"/>
<path d="M18.7948 3.69075C18.3537 2.97716 17.5641 2.5 16.6666 2.5H3.33325C2.43577 2.5 1.64611 2.97716 1.20503 3.69075L2.12884 4.30662L2.14447 4.31731L9.99992 9.81612L17.8554 4.31731L17.871 4.30662L18.7948 3.69075Z" fill="white"/>
</svg>
