<svg width="48" height="48" viewBox="0 0 48 48" fill="none" xmlns="http://www.w3.org/2000/svg">
<path d="M25.4094 22.9443L22.5911 23.9717L16.5735 7.48145L17.9817 6.96777L19.3899 6.45215L25.4094 22.9443ZM31.4172 20.9756L30.0188 21.5186L28.6204 22.0596L22.6008 6.54004L25.3997 5.4541L31.4172 20.9756Z" fill="#198039"/>
<path d="M31.9976 4.49707L38.3668 18.8721C38.7737 19.7913 38.2425 20.7855 37.3609 21.0479L23.9996 25.0225L10.6382 21.0479C9.7569 20.7854 9.22566 19.7911 9.63238 18.8721L16.0015 4.49707H31.9976ZM13.0211 18.626L23.9996 21.8916L34.9761 18.626L30.0464 7.49707H17.9527L13.0211 18.626Z" fill="#198039"/>
<path d="M22.5584 23.7957C23.2321 22.7933 24.7022 22.7908 25.3787 23.7918L28.3396 28.1727L33.2849 29.5672C34.4908 29.9072 34.8871 31.3404 34.1677 32.2645L30.8826 36.4813L31.1912 41.6922C31.26 42.8548 30.1129 43.8544 28.8923 43.3934L23.9705 41.534L19.0935 43.3914C17.8799 43.8534 16.7315 42.8687 16.7888 41.7098L17.0525 36.4012L13.8337 32.2625C13.1154 31.3394 13.5075 29.9093 14.7107 29.5672L19.615 28.1727L22.5584 23.7957ZM21.7986 30.3055L21.492 30.7606L17.3748 31.9286L20.1052 35.4383L20.0779 35.995L19.8826 39.8797L23.4373 38.5282L23.9685 38.327L24.4998 38.5282L28.0779 39.8778L27.822 35.5321L28.1677 35.0848L30.6228 31.9325L26.4705 30.7625L26.1619 30.3075L23.9724 27.0672L21.7986 30.3055Z" fill="#198039"/>
</svg>
