<svg width="20" height="20" viewBox="0 0 20 20" fill="none" xmlns="http://www.w3.org/2000/svg">
<g clip-path="url(#clip0_42_6782)">
<path d="M1.73978 6.30934L1.00455 6.45745L1.0046 6.4577L1.73978 6.30934ZM6.6665 6.66663L7.17788 7.21526L7.58858 6.83245L7.33698 6.33053L6.6665 6.66663ZM4.16011 1.66663L4.83059 1.33053C4.72862 1.12712 4.53984 0.981004 4.31736 0.933297C4.09489 0.88559 3.86279 0.941457 3.68639 1.08517L4.16011 1.66663ZM6.14923 13.8506L6.67976 13.3204L6.67936 13.32L6.14923 13.8506ZM13.6902 18.2601L13.5419 18.9953L13.5421 18.9953L13.6902 18.2601ZM13.333 13.3334L13.6691 12.6629L13.1671 12.4113L12.7843 12.822L13.333 13.3334ZM18.333 15.8398L18.9144 16.3135C19.0581 16.1371 19.114 15.905 19.0663 15.6825C19.0186 15.4601 18.8725 15.2713 18.6691 15.1693L18.333 15.8398ZM1.73978 6.30934L1.0046 6.4577C1.25024 7.67495 1.65984 8.87598 2.49129 10.3252L3.14182 9.95195L3.79236 9.57872C3.04314 8.27284 2.68951 7.22417 2.47496 6.16098L1.73978 6.30934ZM3.14182 9.95195L3.6532 10.5006L7.17788 7.21526L6.6665 6.66663L6.15513 6.11799L2.63045 9.40332L3.14182 9.95195ZM6.6665 6.66663L7.33698 6.33053L4.83059 1.33053L4.16011 1.66663L3.48963 2.00272L5.99603 7.00272L6.6665 6.66663ZM4.16011 1.66663L3.68639 1.08517C2.43226 2.10693 0.474773 3.82763 1.00455 6.45745L1.73978 6.30934L2.47501 6.16123C2.14152 4.50578 3.30765 3.32854 4.63383 2.24808L4.16011 1.66663ZM3.14182 9.95195L2.49129 10.3252C3.3271 11.782 4.39735 13.1602 5.6191 14.3811L6.14923 13.8506L6.67936 13.32C5.545 12.1865 4.55778 10.9128 3.79236 9.57872L3.14182 9.95195ZM13.6902 18.2601L13.8386 17.5249C12.7754 17.3104 11.7267 16.9567 10.4209 16.2075L10.0476 16.8581L9.6744 17.5086C11.1236 18.3401 12.3246 18.7496 13.5419 18.9953L13.6902 18.2601ZM10.0476 16.8581L10.5963 17.3694L13.8816 13.8448L13.333 13.3334L12.7843 12.822L9.499 16.3467L10.0476 16.8581ZM13.333 13.3334L12.9969 14.0039L17.9969 16.5103L18.333 15.8398L18.6691 15.1693L13.6691 12.6629L13.333 13.3334ZM18.333 15.8398L17.7515 15.3661C16.671 16.6922 15.4938 17.8584 13.8384 17.5249L13.6902 18.2601L13.5421 18.9953C16.172 19.5251 17.8927 17.5676 18.9144 16.3135L18.333 15.8398ZM10.0476 16.8581L10.4209 16.2075C9.08678 15.4421 7.81335 14.4549 6.67976 13.3204L6.14923 13.8506L5.6187 14.3807C6.83952 15.6024 8.21752 16.6728 9.6744 17.5086L10.0476 16.8581Z" fill="#FAFAFA"/>
<path d="M11.6665 2.5V4.83333M15.7917 4.20898L14.1418 5.8589M17.4998 8.33333H15.1665" stroke="#FAFAFA" stroke-width="1.5"/>
</g>
<defs>
<clipPath id="clip0_42_6782">
<rect width="20" height="20" fill="white"/>
</clipPath>
</defs>
</svg>
