<svg width="22" height="22" viewBox="0 0 22 22" fill="none" xmlns="http://www.w3.org/2000/svg">
<path d="M3.32469 0.202646C3.53622 0.030308 3.81492 -0.0372031 4.08172 0.0198332C4.34869 0.0770811 4.57577 0.2527 4.69813 0.496786L7.70633 6.49679L8.0075 7.09913L3.81688 11.0038C4.67609 12.3828 5.72909 13.6973 6.91649 14.8839C8.10251 16.0708 9.41722 17.1233 10.7954 17.9823L14.7024 13.7941L15.3048 14.0952L21.3048 17.1034C21.5485 17.2258 21.7232 17.452 21.7806 17.7187C21.8378 17.9855 21.7711 18.2641 21.5989 18.4757C20.3729 19.9806 18.3079 22.3302 15.1524 21.6948C13.6918 21.4001 12.2495 20.9077 10.5106 19.9101C8.76244 18.9071 7.10877 17.6226 5.64383 16.1566C4.17799 14.6917 2.89432 13.0377 1.89149 11.2898C1.01845 9.76804 0.532609 8.47463 0.227425 7.1964L0.106722 6.64913C-0.528937 3.49368 1.81972 1.4288 3.32469 0.202646ZM12.4173 18.8823C13.5389 19.4271 14.5173 19.7302 15.5075 19.93L15.6915 19.9616C17.2199 20.1885 18.4044 19.3418 19.4661 18.1944L15.0985 16.0054L12.4173 18.8823ZM3.60594 2.33429C2.41315 3.43804 1.54594 4.67527 1.87157 6.29288C2.07127 7.28249 2.37271 8.26114 2.91688 9.38194L5.79383 6.70069L3.60594 2.33429Z" fill="white"/>
<path d="M19.9008 7.99951V9.79951H17.1012V7.99951H19.9008ZM18.4875 4.58701L16.5083 6.56748L15.2356 5.29365L17.2149 3.31436L18.4875 4.58701ZM13.8012 1.8999V4.69951H12.0012V1.8999H13.8012Z" fill="white"/>
</svg>
