<svg width="20" height="20" viewBox="0 0 20 20" fill="none" xmlns="http://www.w3.org/2000/svg">
<path d="M4.26471 2.5H6.66573C7.34724 2.5 7.96009 2.91492 8.21319 3.54768L9.09981 5.76423C9.36435 6.42559 9.10981 7.18117 8.49902 7.54765C7.85137 7.93623 7.60077 8.7645 8.02466 9.38961C8.7149 10.4075 9.59252 11.2851 10.6104 11.9753C11.2355 12.3992 12.0638 12.1486 12.4524 11.501C12.8188 10.8902 13.5744 10.6356 14.2358 10.9002L16.4523 11.7868C17.0851 12.0399 17.5 12.6528 17.5 13.3343V15.7353C17.5 16.2033 17.3141 16.6522 16.9831 16.9831C16.6522 17.3141 16.2033 17.5 15.7353 17.5C12.2935 17.2908 9.04719 15.8293 6.60897 13.391C4.17074 10.9528 2.70916 7.70653 2.5 4.26471C2.5 3.79668 2.68592 3.34782 3.01687 3.01687C3.34782 2.68592 3.79668 2.5 4.26471 2.5Z" fill="white"/>
</svg>
