<svg width="20" height="20" viewBox="0 0 20 20" fill="none" xmlns="http://www.w3.org/2000/svg">
<path fill-rule="evenodd" clip-rule="evenodd" d="M9.99992 3.33337C10.4602 3.33337 10.8333 3.70647 10.8333 4.16671V9.16671H15.8333C16.2935 9.16671 16.6666 9.5398 16.6666 10C16.6666 10.4603 16.2935 10.8334 15.8333 10.8334H10.8333V15.8334C10.8333 16.2936 10.4602 16.6667 9.99992 16.6667C9.53968 16.6667 9.16658 16.2936 9.16658 15.8334V10.8334H4.16659C3.70635 10.8334 3.33325 10.4603 3.33325 10C3.33325 9.5398 3.70635 9.16671 4.16659 9.16671H9.16658V4.16671C9.16658 3.70647 9.53968 3.33337 9.99992 3.33337Z" fill="white"/>
</svg>
