<svg width="18" height="22" viewBox="0 0 18 22" fill="none" xmlns="http://www.w3.org/2000/svg">
<path d="M16.75 20.75V17.75C16.75 14.9216 16.75 13.5074 15.8713 12.6287C14.9926 11.75 13.5784 11.75 10.75 11.75L8.75 13.75L6.75 11.75C3.92157 11.75 2.50736 11.75 1.62868 12.6287C0.75 13.5074 0.75 14.9216 0.75 17.75L0.75 20.75" stroke="#198039" stroke-width="1.5" stroke-linecap="round" stroke-linejoin="round"/>
<path d="M12.75 11.75L12.75 17.25" stroke="#198039" stroke-width="1.5" stroke-linecap="round" stroke-linejoin="round"/>
<path d="M5.25 11.75L5.25 15.75M5.25 15.75C6.35457 15.75 7.25 16.6454 7.25 17.75V18.75M5.25 15.75C4.14543 15.75 3.25 16.6454 3.25 17.75L3.25 18.75" stroke="#198039" stroke-width="1.5" stroke-linecap="round" stroke-linejoin="round"/>
<path d="M12.25 5.25V4.25C12.25 2.317 10.683 0.75 8.75 0.75C6.817 0.75 5.25 2.317 5.25 4.25V5.25C5.25 7.183 6.817 8.75 8.75 8.75C10.683 8.75 12.25 7.183 12.25 5.25Z" stroke="#198039" stroke-width="1.5" stroke-linecap="round" stroke-linejoin="round"/>
<path d="M13.5 18C13.5 18.4142 13.1642 18.75 12.75 18.75C12.3358 18.75 12 18.4142 12 18C12 17.5858 12.3358 17.25 12.75 17.25C13.1642 17.25 13.5 17.5858 13.5 18Z" stroke="#198039" stroke-width="1.5"/>
</svg>
