<svg width="22" height="22" viewBox="0 0 22 22" fill="none" xmlns="http://www.w3.org/2000/svg">
<path d="M21.2803 20.2197L20.2197 21.2803L15.7197 16.7803L16.7803 15.7197L21.2803 20.2197Z" fill="#71717A"/>
<path d="M18 9.75C18 5.19365 14.3063 1.5 9.75 1.5C5.19365 1.5 1.5 5.19365 1.5 9.75C1.5 14.3063 5.19365 18 9.75 18C14.3063 18 18 14.3063 18 9.75ZM19.5 9.75C19.5 15.1348 15.1348 19.5 9.75 19.5C4.36522 19.5 0 15.1348 0 9.75C0 4.36522 4.36522 0 9.75 0C15.1348 0 19.5 4.36522 19.5 9.75Z" fill="#71717A"/>
</svg>
