<svg width="19" height="22" viewBox="0 0 19 22" fill="none" xmlns="http://www.w3.org/2000/svg">
<path d="M9.25 0.75C4.55558 0.75 0.75 4.36783 0.75 8.83066C0.75 11.3825 1.8125 13.3667 3.9375 15.139C5.43532 16.3882 7.24986 18.4631 8.33932 20.1451C8.86176 20.9516 9.60067 20.9516 10.1607 20.1451C11.3053 18.4966 13.0647 16.3882 14.5625 15.139C16.6875 13.3667 17.75 11.3825 17.75 8.83066C17.75 4.36783 13.9444 0.75 9.25 0.75Z" stroke="#198039" stroke-width="1.5" stroke-linejoin="round"/>
<path d="M7.25 5.75L7.25 8.75M7.25 11.75L7.25 8.75M11.25 5.75V8.75M11.25 11.75L11.25 8.75M11.25 8.75L7.25 8.75" stroke="#198039" stroke-width="1.5" stroke-linecap="round"/>
</svg>
