<svg width="694" height="142" viewBox="0 0 694 142" fill="none" xmlns="http://www.w3.org/2000/svg">
<g opacity="0.93" filter="url(#filter0_f_1621_4802)">
<path fill-rule="evenodd" clip-rule="evenodd" d="M3 138.619L690.499 139C690.504 139 690.517 139 690.521 139C690.527 138.998 690.535 138.998 690.539 138.998C690.542 138.998 690.548 138.999 690.553 138.998C690.559 138.998 690.562 138.997 690.571 138.996C690.581 138.994 690.591 138.993 690.6 138.991L690.615 138.987C690.612 138.988 690.619 138.986 690.615 138.987L690.63 138.983C690.634 138.982 690.638 138.981 690.642 138.979C690.646 138.978 690.656 138.975 690.66 138.973C690.666 138.971 690.68 138.966 690.686 138.963C690.689 138.962 690.693 138.96 690.696 138.958C690.702 138.956 690.708 138.953 690.714 138.95C690.728 138.943 690.741 138.936 690.754 138.927C690.767 138.919 690.78 138.91 690.792 138.901L690.806 138.889C690.814 138.883 690.822 138.876 690.829 138.87C690.84 138.859 690.851 138.848 690.862 138.836C690.865 138.832 690.868 138.828 690.872 138.824C690.875 138.82 690.879 138.816 690.882 138.812C690.891 138.8 690.9 138.789 690.907 138.777C690.911 138.771 690.915 138.765 690.919 138.758C690.923 138.751 690.928 138.742 690.932 138.735L690.941 138.717C690.951 138.695 690.959 138.672 690.966 138.648C690.971 138.633 690.975 138.618 690.978 138.603C690.987 138.56 690.99 138.517 690.988 138.473V138.439L690.986 138.422C690.985 138.411 690.983 138.401 690.981 138.39L690.978 138.376L690.974 138.361C690.973 138.357 690.971 138.353 690.97 138.349C690.969 138.345 690.965 138.333 690.964 138.33C690.963 138.325 690.958 138.313 690.956 138.308L690.952 138.297C690.95 138.29 690.945 138.28 690.942 138.274C690.937 138.264 690.932 138.255 690.927 138.245C690.925 138.241 690.922 138.237 690.92 138.233C690.912 138.221 690.902 138.205 690.894 138.194C690.889 138.186 690.883 138.179 690.878 138.172C690.873 138.167 690.868 138.161 690.864 138.156L629.026 69.862L690.877 4.22169C690.883 4.2151 690.889 4.20682 690.895 4.19916L690.907 4.18376L690.915 4.17163C690.919 4.16612 690.923 4.16055 690.926 4.15479C690.933 4.14478 690.94 4.13109 690.944 4.12422C690.948 4.11737 690.951 4.11052 690.955 4.10339L690.959 4.09312C690.962 4.0881 690.963 4.08575 690.966 4.07811C690.969 4.07118 690.972 4.06212 690.974 4.05519L690.981 4.03648C690.983 4.03069 690.986 4.02094 690.986 4.01514L690.989 4.00171L690.992 3.98695L690.995 3.97205L690.998 3.95561L691 3.93822V3.88132C691 3.82964 690.992 3.77827 690.977 3.72902C690.971 3.70546 690.962 3.68246 690.952 3.66026L690.941 3.63947C690.943 3.64232 690.94 3.63652 690.941 3.63947L690.93 3.61943C690.926 3.61284 690.923 3.60654 690.918 3.60046C690.91 3.58853 690.902 3.57692 690.893 3.56567L690.887 3.55768C690.883 3.55363 690.876 3.54538 690.873 3.5417C690.862 3.5298 690.851 3.51846 690.84 3.50774C690.829 3.49666 690.816 3.48611 690.803 3.47638C690.796 3.47101 690.789 3.46585 690.782 3.46094C690.777 3.45715 690.771 3.45351 690.765 3.45001C690.752 3.44177 690.739 3.43422 690.725 3.42735C690.716 3.42285 690.707 3.41862 690.698 3.41472C690.685 3.40903 690.672 3.40411 690.659 3.39996C690.653 3.39786 690.646 3.39575 690.641 3.39444L690.627 3.39049C690.621 3.38916 690.611 3.3868 690.606 3.3868C690.6 3.38548 690.589 3.38336 690.583 3.38336C690.578 3.38266 690.568 3.38101 690.564 3.38101C690.559 3.38075 690.555 3.38075 690.551 3.38101L3 3L3 138.619Z" fill="url(#paint0_linear_1621_4802)"/>
</g>
<defs>
<filter id="filter0_f_1621_4802" x="0" y="0" width="694" height="142" filterUnits="userSpaceOnUse" color-interpolation-filters="sRGB">
<feFlood flood-opacity="0" result="BackgroundImageFix"/>
<feBlend mode="normal" in="SourceGraphic" in2="BackgroundImageFix" result="shape"/>
<feGaussianBlur stdDeviation="1.5" result="effect1_foregroundBlur_1621_4802"/>
</filter>
<linearGradient id="paint0_linear_1621_4802" x1="636.065" y1="70.5523" x2="-193.643" y2="70.5523" gradientUnits="userSpaceOnUse">
<stop stop-color="#0EAE1D"/>
<stop offset="1" stop-color="#155628" stop-opacity="0"/>
</linearGradient>
</defs>
</svg>
