<svg width="32" height="32" viewBox="0 0 32 32" fill="none" xmlns="http://www.w3.org/2000/svg">
<g clip-path="url(#clip0_43_1008)">
<path d="M25.5 32H6.5C2.91 32 0 29.09 0 25.5V6.5C0 2.91 2.91 0 6.5 0H25.5C29.09 0 32 2.91 32 6.5V25.5C32 29.09 29.09 32 25.5 32Z" fill="#3A83C1"/>
<path d="M32 22.805V25.5C32 29.09 29.09 32 25.5 32H9.15L5.075 27.925C5.03 27.88 5 27.82 5 27.75L5.46 27.88C5.755 28.03 6.42 28.25 7.75 28.25C9.52 28.25 10.875 27.63 12.35 27.19C12.89 27.025 13.475 27.04 14.005 27.235C15.79 27.89 17.725 28.25 19.75 28.25C24.67 28.25 29.065 26.13 32 22.805Z" fill="#3070B7"/>
<path d="M32 6.5V23.12C28.905 26.5 24.46 28.44 19.75 28.44C17.745 28.44 15.78 28.09 13.92 27.405C13.445 27.23 12.91 27.22 12.425 27.365C12.09 27.465 11.77 27.575 11.445 27.68C10.325 28.05 9.16 28.44 7.75 28.44C5.705 28.44 5.13 27.925 5.075 27.865C5.015 27.805 4.99 27.72 5.005 27.64C5.02 27.56 5.075 27.49 5.15 27.46C5.17 27.45 7.32 26.5 8.16 24.685C8.325 24.32 8.245 23.885 7.955 23.595C5.08 20.7 3.5 16.915 3.5 12.94C3.5 7.68 6.215 2.885 10.795 0H25.5C29.09 0 32 2.91 32 6.5Z" fill="#FEFDEF"/>
<path d="M26.75 11C25.0955 11 23.75 12.458 23.75 14.25C23.75 16.042 25.0955 17.5 26.75 17.5C28.4045 17.5 29.75 16.042 29.75 14.25C29.75 12.458 28.4045 11 26.75 11ZM26.75 15.75C26.0955 15.75 25.5625 15.077 25.5625 14.25C25.5625 13.423 26.0955 12.75 26.75 12.75C27.4045 12.75 27.9375 13.423 27.9375 14.25C27.9375 15.077 27.4045 15.75 26.75 15.75Z" fill="#3A83C1"/>
<path d="M21.875 8.75C21.392 8.75 21 9.1415 21 9.625V16.625C21 17.1085 21.392 17.5 21.875 17.5C22.358 17.5 22.75 17.1085 22.75 16.625V9.625C22.75 9.1415 22.358 8.75 21.875 8.75Z" fill="#3A83C1"/>
<path d="M18.4995 14.25C18.4995 15.0785 17.94 15.75 17.2495 15.75C16.559 15.75 15.9995 15.0785 15.9995 14.25C15.9995 13.4215 16.559 12.75 17.2495 12.75C17.94 12.75 18.4995 13.4215 18.4995 14.25ZM19.3745 11.125C19.0085 11.125 18.696 11.35 18.5655 11.669C18.113 11.251 17.55 11 16.937 11C15.4525 11 14.2495 12.455 14.2495 14.25C14.2495 16.045 15.4525 17.5 16.937 17.5C17.55 17.5 18.113 17.249 18.5655 16.831C18.696 17.15 19.009 17.375 19.3745 17.375C19.8575 17.375 20.2495 16.9835 20.2495 16.5V12C20.2495 11.5165 19.8575 11.125 19.3745 11.125Z" fill="#3A83C1"/>
<path d="M12.8747 15.5H10.0412L13.4072 10.622C13.6817 10.224 13.5817 9.67901 13.1837 9.40451C13.0327 9.30051 12.8607 9.25051 12.6902 9.25001C12.6892 9.25001 12.6877 9.24951 12.6867 9.24951H8.49965C8.05115 9.24951 7.68715 9.61351 7.68715 10.062C7.68715 10.5105 8.05115 10.8745 8.49965 10.8745H11.1067L7.65465 15.878C7.47015 16.1455 7.44915 16.4935 7.60015 16.782C7.75115 17.0705 8.04965 17.25 8.37465 17.25H12.8747C13.3577 17.25 13.7497 16.8585 13.7497 16.375C13.7497 15.8915 13.3577 15.5 12.8747 15.5Z" fill="#3A83C1"/>
</g>
<defs>
<clipPath id="clip0_43_1008">
<rect width="32" height="32" fill="white"/>
</clipPath>
</defs>
</svg>
