<svg width="20" height="20" viewBox="0 0 20 20" fill="none" xmlns="http://www.w3.org/2000/svg">
<g clip-path="url(#clip0_2693_28043)">
<path d="M3.72524 0.101327C4.40999 -0.00665471 5.10637 -0.00730131 5.79823 0.008217L5.73874 0.0631777C4.83351 0.656106 4.08281 1.47017 3.54032 2.4045C2.45274 4.27511 2.05638 6.48711 2.14626 8.63122C2.23549 10.377 2.65448 12.1325 3.5429 13.6501C3.69162 13.9217 3.93927 14.1616 3.94315 14.4913C3.97095 15.1987 3.62114 15.8653 3.14783 16.371C3.17887 16.4033 3.20926 16.4356 3.2403 16.468C3.68321 16.9516 4.15588 17.4062 4.60591 17.8834C5.24539 18.6063 5.9741 19.2464 6.60066 19.9822C5.55834 19.9977 4.50375 20.0462 3.47372 19.8516C2.17729 19.6001 1.02635 18.7013 0.476744 17.4999C0.143747 16.8055 0.0441711 16.0289 0.0183072 15.2679C0.0176606 11.7543 0.0176606 8.24133 0.0183072 4.72837C0.0325323 3.55415 0.343545 2.32562 1.1699 1.45465C1.82425 0.716886 2.75082 0.237112 3.72524 0.101327Z" fill="#0068FF"/>
<path d="M13.2185 6.55298C13.4959 6.55298 13.7733 6.55298 14.0513 6.55298C14.0468 8.17788 14.0468 9.80342 14.0513 11.4283C13.7798 11.3902 13.3278 11.5641 13.2256 11.2027C13.2088 9.65341 13.2243 8.10287 13.2185 6.55298Z" fill="#0068FF"/>
<path d="M4.73256 6.61063C6.02316 6.60933 7.31248 6.60093 8.60244 6.60998C8.59338 6.8628 8.57916 7.13825 8.40975 7.34257C7.52779 8.44049 6.66459 9.55264 5.78328 10.6506C6.7202 10.6564 7.65711 10.6525 8.59403 10.6525C8.57657 10.8717 8.65352 11.1271 8.51127 11.3172C8.42204 11.4401 8.26039 11.4291 8.12654 11.4304C6.95426 11.4239 5.78198 11.4362 4.61035 11.4239C4.61358 11.1762 4.61617 10.9021 4.78946 10.7049C5.66107 9.61148 6.54303 8.52584 7.41076 7.42986C6.5191 7.43116 5.6268 7.42404 4.73514 7.43374C4.72933 7.15959 4.73127 6.88478 4.73256 6.61063Z" fill="#0068FF"/>
<path d="M16.1159 7.68652C17.0444 7.47897 18.0518 8.08871 18.3059 9.00299C18.6247 9.95414 18.0427 11.085 17.0813 11.3747C16.2646 11.6624 15.2869 11.2868 14.8634 10.5341C14.5311 9.97806 14.511 9.24999 14.813 8.67776C15.069 8.17277 15.5637 7.80356 16.1159 7.68652ZM16.1004 8.51029C15.5339 8.71009 15.2288 9.39936 15.4499 9.95608C15.6329 10.4824 16.2491 10.8044 16.7845 10.6428C17.3955 10.4966 17.7647 9.78085 17.5481 9.19439C17.367 8.61374 16.6655 8.27881 16.1004 8.51029Z" fill="#0068FF"/>
<path d="M9.23733 8.36347C9.68413 7.80998 10.4665 7.53712 11.1558 7.73433C11.3834 7.79188 11.5897 7.90568 11.7888 8.02659C11.7869 7.96581 11.7823 7.8449 11.7804 7.78412C12.041 7.78283 12.3009 7.78347 12.5615 7.78218C12.5602 8.99778 12.5589 10.2134 12.5621 11.4296C12.3707 11.4245 12.1761 11.4471 11.988 11.4083C11.856 11.3546 11.8153 11.2104 11.7629 11.0928C11.0439 11.6514 9.91432 11.5247 9.31687 10.8445C8.67997 10.1856 8.64699 9.06309 9.23733 8.36347ZM10.29 8.52641C9.69124 8.7372 9.40092 9.50859 9.70418 10.0647C9.96282 10.6065 10.6909 10.8341 11.2114 10.5354C11.6944 10.2819 11.9175 9.65278 11.7099 9.14973C11.5088 8.60271 10.8305 8.29623 10.29 8.52641Z" fill="#0068FF"/>
<path d="M5.73858 0.0631127C5.88342 0.0217306 6.03472 0.00879864 6.18473 0.00427246C8.77047 0.0139714 11.3562 0.00297927 13.9419 0.00750544C14.6332 0.0159112 15.3282 -0.0306437 16.0143 0.0747515C16.9641 0.14717 17.8784 0.549353 18.5852 1.18496C19.4723 2.03265 19.9456 3.25342 19.9605 4.47096C19.9611 7.89857 19.9592 11.3288 19.9624 14.7551C19.9534 14.7751 19.9359 14.8165 19.9268 14.8372C19.0054 15.8679 17.7666 16.5655 16.4714 17.0169C14.7263 17.6117 12.857 17.8031 11.0226 17.6635C9.18817 17.5057 7.33955 17.0266 5.78384 16.0127C4.98853 16.3664 4.1111 16.5397 3.24013 16.4679C3.2091 16.4356 3.17871 16.4032 3.14767 16.3709C3.62098 15.8653 3.97079 15.1986 3.94298 14.4913C3.9391 14.1615 3.69146 13.9216 3.54274 13.65C2.65432 12.1325 2.23532 10.377 2.14609 8.63116C2.05621 6.48705 2.45258 4.27504 3.54015 2.40444C4.08265 1.47011 4.83335 0.656042 5.73858 0.0631127ZM13.2184 6.553C13.2242 8.10289 13.2087 9.65343 13.2255 11.2027C13.3277 11.5641 13.7797 11.3902 14.0512 11.4283C14.0467 9.80344 14.0467 8.1779 14.0512 6.553C13.7732 6.553 13.4958 6.553 13.2184 6.553ZM4.73248 6.61055C4.73118 6.8847 4.72924 7.15951 4.73506 7.43366C5.62672 7.42397 6.51902 7.43108 7.41068 7.42978C6.54295 8.52577 5.66099 9.6114 4.78938 10.7048C4.61609 10.902 4.6135 11.1762 4.61027 11.4238C5.7819 11.4361 6.95418 11.4238 8.12646 11.4303C8.26031 11.429 8.42195 11.44 8.51119 11.3171C8.65344 11.127 8.57649 10.8716 8.59395 10.6524C7.65703 10.6524 6.72011 10.6563 5.7832 10.6505C6.66451 9.55256 7.52771 8.44041 8.40967 7.34249C8.57908 7.13817 8.5933 6.86272 8.60236 6.6099C7.3124 6.60085 6.02308 6.60925 4.73248 6.61055ZM16.1158 7.68648C15.5636 7.80352 15.069 8.17272 14.8129 8.67772C14.511 9.24995 14.531 9.97802 14.8633 10.5341C15.2869 11.2867 16.2645 11.6624 17.0812 11.3747C18.0427 11.085 18.6246 9.9541 18.3058 9.00295C18.0517 8.08867 17.0443 7.47893 16.1158 7.68648ZM9.23731 8.36347C8.64697 9.06309 8.67995 10.1856 9.31684 10.8445C9.9143 11.5247 11.0439 11.6514 11.7629 11.0928C11.8153 11.2104 11.856 11.3546 11.9879 11.4083C12.1761 11.4471 12.3707 11.4245 12.5621 11.4296C12.5589 10.2134 12.5602 8.99778 12.5615 7.78218C12.3009 7.78347 12.041 7.78283 11.7804 7.78412C11.7823 7.8449 11.7868 7.96581 11.7888 8.02659C11.5896 7.90568 11.3834 7.79188 11.1558 7.73433C10.4665 7.53712 9.68411 7.80998 9.23731 8.36347Z" fill="white"/>
<path d="M10.29 8.52648C10.8306 8.29629 11.5089 8.60278 11.71 9.1498C11.9175 9.65285 11.6944 10.282 11.2114 10.5355C10.6909 10.8342 9.96285 10.6066 9.70421 10.0647C9.40096 9.50866 9.69128 8.73727 10.29 8.52648Z" fill="white"/>
<path d="M16.1005 8.51036C16.6656 8.27888 17.3672 8.61381 17.5482 9.19446C17.7649 9.78092 17.3957 10.4967 16.7846 10.6428C16.2492 10.8045 15.633 10.4825 15.45 9.95615C15.2289 9.39943 15.5341 8.71016 16.1005 8.51036Z" fill="white"/>
<path d="M19.9267 14.8372L19.9778 14.7816C20.0043 15.7922 19.895 16.8468 19.3991 17.7463C18.8223 18.8015 17.7761 19.5852 16.5993 19.8361C15.9391 19.9725 15.2622 20.0029 14.5897 19.9945C12.5212 19.9951 10.4528 19.9945 8.38431 19.9951C7.78944 19.9854 7.19328 20.0132 6.60035 19.9822C5.9738 19.2464 5.24509 18.6062 4.6056 17.8833C4.15557 17.4062 3.68291 16.9516 3.23999 16.4679C4.11096 16.5397 4.98839 16.3664 5.7837 16.0127C7.33941 17.0266 9.18803 17.5057 11.0224 17.6635C12.8568 17.8032 14.7261 17.6118 16.4713 17.0169C17.7664 16.5656 19.0053 15.8679 19.9267 14.8372Z" fill="#005BE0"/>
</g>
<defs>
<clipPath id="clip0_2693_28043">
<rect width="20" height="20" fill="white"/>
</clipPath>
</defs>
</svg>
