<svg width="558" height="136" viewBox="0 0 558 136" fill="none" xmlns="http://www.w3.org/2000/svg">
<g clip-path="url(#clip0_1_874)">
<path fill-rule="evenodd" clip-rule="evenodd" d="M29.0376 118.128C39.5789 122.562 50.6877 125.505 62.0427 126.871C51.5166 125.137 41.2377 122.143 31.428 117.952L29.0376 118.103V118.128Z" fill="#06984F"/>
<path fill-rule="evenodd" clip-rule="evenodd" d="M141.591 99.2673C138.122 102.733 136.17 107.433 136.164 112.336C137.432 111.065 138.839 109.94 140.358 108.983C141.466 105.863 141.884 102.539 141.582 99.2421L141.591 99.2673Z" fill="#06984F"/>
<path fill-rule="evenodd" clip-rule="evenodd" d="M118.349 112.545C115.8 113.767 113.559 115.546 111.793 117.752C110.027 119.958 108.782 122.534 108.149 125.287C109.704 124.748 111.218 124.098 112.679 123.342C115.902 120.617 117.936 116.744 118.349 112.545Z" fill="#06984F"/>
<path fill-rule="evenodd" clip-rule="evenodd" d="M54.4941 124.499C56.7646 121.778 59.6547 119.64 62.9222 118.264C66.1897 116.889 69.7394 116.316 73.2739 116.594C70.0279 122.328 60.0635 125.798 54.4941 124.499Z" fill="#06984F"/>
<path fill-rule="evenodd" clip-rule="evenodd" d="M96.7757 127.249C94.9808 127.512 93.2046 127.89 91.458 128.38C94.2815 123.176 98.6876 119.005 104.039 116.468C103.102 120.871 100.488 124.737 96.7506 127.249H96.7757Z" fill="#06984F"/>
<path fill-rule="evenodd" clip-rule="evenodd" d="M79.2709 128.213C77.4297 128.121 75.5839 128.211 73.7603 128.481C75.3774 125.586 77.613 123.084 80.3081 121.151C83.0031 119.218 86.0912 117.903 89.3527 117.298C87.2643 121.923 83.733 125.746 79.2877 128.196L79.2709 128.213Z" fill="#06984F"/>
<path fill-rule="evenodd" clip-rule="evenodd" d="M168.792 72.5853C166.728 73.868 165.024 75.6544 163.842 77.7764C162.659 79.8983 162.036 82.2861 162.031 84.715C164.058 83.3927 165.732 81.5976 166.91 79.4844C168.088 77.3713 168.734 75.0035 168.792 72.5853Z" fill="#06984F"/>
<path fill-rule="evenodd" clip-rule="evenodd" d="M157.753 87.8836C156.2 89.3855 154.892 91.1224 153.878 93.0305C153.946 88.789 155.405 84.6868 158.03 81.3535C158.662 83.501 158.565 85.7972 157.753 87.8836Z" fill="#06984F"/>
<path fill-rule="evenodd" clip-rule="evenodd" d="M135.635 114.775C138.614 114.904 141.587 114.413 144.367 113.334C147.146 112.254 149.671 110.61 151.781 108.505C148.782 108.145 145.74 108.529 142.924 109.623C140.108 110.716 137.605 112.486 135.635 114.775Z" fill="#06984F"/>
<path fill-rule="evenodd" clip-rule="evenodd" d="M122.475 122.009C128.685 123.093 135.073 121.706 140.274 118.145C137.219 117.317 134.011 117.235 130.919 117.908C127.827 118.581 124.942 119.987 122.509 122.009H122.475Z" fill="#06984F"/>
<path fill-rule="evenodd" clip-rule="evenodd" d="M107.185 127.257C110.376 128.438 113.783 128.919 117.177 128.669C120.57 128.419 123.87 127.443 126.853 125.807C123.654 124.671 120.253 124.214 116.866 124.463C113.48 124.713 110.183 125.664 107.185 127.257Z" fill="#06984F"/>
<path fill-rule="evenodd" clip-rule="evenodd" d="M90.376 130.124C96.4419 132.949 103.298 133.594 109.785 131.951C106.966 130.036 103.709 128.864 100.315 128.545C96.922 128.225 93.5029 128.768 90.376 130.124Z" fill="#06984F"/>
<path fill-rule="evenodd" clip-rule="evenodd" d="M72.5859 130.006C75.4488 132.427 78.821 134.17 82.4514 135.108C86.0819 136.045 89.8772 136.153 93.5549 135.422C90.7613 132.887 87.3927 131.069 83.7395 130.126C80.0864 129.183 76.2585 129.142 72.5859 130.006Z" fill="#06984F"/>
<path fill-rule="evenodd" clip-rule="evenodd" d="M50.7197 126.385C53.4866 129.634 56.9758 132.19 60.9082 133.849C64.8406 135.509 69.1071 136.225 73.3662 135.941C70.4505 132.879 66.9349 130.451 63.0386 128.807C59.1423 127.162 54.9488 126.338 50.7197 126.385Z" fill="#06984F"/>
<path fill-rule="evenodd" clip-rule="evenodd" d="M146.221 105.479C147.742 103.122 149.848 101.198 152.333 99.8953C154.818 98.5923 157.599 97.9544 160.404 98.0434C158.893 100.4 156.795 102.324 154.316 103.628C151.837 104.931 149.062 105.569 146.263 105.479H146.221Z" fill="#06984F"/>
<path fill-rule="evenodd" clip-rule="evenodd" d="M154.029 95.8136C155.259 93.5845 156.966 91.6538 159.027 90.1586C161.089 88.6634 163.455 87.6405 165.956 87.1627C164.918 89.5347 163.265 91.5869 161.169 93.1075C159.072 94.6282 156.608 95.5624 154.029 95.8136Z" fill="#06984F"/>
<path fill-rule="evenodd" clip-rule="evenodd" d="M127.097 117.667C125.789 118.438 124.463 119.193 123.138 119.939C123.175 117.385 123.789 114.873 124.934 112.59C126.078 110.307 127.724 108.312 129.748 106.753C129.91 110.563 128.992 114.341 127.097 117.65V117.667Z" fill="#06984F"/>
<path fill-rule="evenodd" clip-rule="evenodd" d="M149.399 100.114C148.12 100.769 147.057 101.779 146.338 103.023C146.274 98.8413 147.694 94.7725 150.347 91.5385C150.827 94.4296 150.499 97.397 149.399 100.114Z" fill="#06984F"/>
<path fill-rule="evenodd" clip-rule="evenodd" d="M85.7543 54.1435H61.8078L69.6502 42.0809H86.4925V41.1504H69.1469L60.7007 54.1435V59.7012H74.5066L40.4111 79.8195L58.3018 52.3161V42.0809L34.3888 78.8472H20.0209L37.1064 52.5676L23.0824 39.2979L1.19923 72.9625C0.469153 74.081 0.0550633 75.3759 0.000756443 76.7102C-0.0535504 78.0445 0.253939 79.3687 0.890714 80.5427C1.52749 81.7168 2.46988 82.697 3.61823 83.3798C4.76658 84.0626 6.07821 84.4225 7.41442 84.4216H34.3888L85.7543 54.1435Z" fill="#06984F"/>
<path fill-rule="evenodd" clip-rule="evenodd" d="M133.614 39.2978L143.201 24.5527C143.929 23.4344 144.341 22.1404 144.394 20.8073C144.448 19.4743 144.14 18.1516 143.503 16.9789C142.867 15.8062 141.925 14.8271 140.778 14.1447C139.631 13.4623 138.321 13.1021 136.986 13.1021H89.2691V39.2978H130.653L89.2691 63.6829V101.925L64.358 78.3526L22.1601 103.215L17.354 110.601H77.1909C80.2787 110.601 83.3176 109.831 86.0318 108.36C88.746 106.888 91.0495 104.763 92.7331 102.176L104.283 84.4216H133.757C136.845 84.422 139.885 83.6507 142.6 82.178C145.314 80.7052 147.617 78.5776 149.299 75.9886L166.418 49.6671V41.1504L159.775 51.3604H132.398L130.595 54.1435H157.972L145.743 72.9457C144.45 74.9036 142.657 76.4803 140.55 77.5121C138.442 78.5439 136.097 78.9933 133.757 78.8136H99.1244L105.306 69.3328H130.695C131.621 69.3345 132.532 69.1054 133.346 68.6663C134.16 68.2271 134.852 67.5919 135.359 66.818L138.663 61.7381H119.028L133.01 40.2283H167.341V48.2253L168.272 46.8003V39.2978H133.614Z" fill="#06984F"/>
<path fill-rule="evenodd" clip-rule="evenodd" d="M86.4925 69.6178V62.0902L64.752 74.8989L69.6587 79.5345L86.4925 69.6178Z" fill="#06984F"/>
<path fill-rule="evenodd" clip-rule="evenodd" d="M89.2691 39.2978V0L63.7206 39.2978H23.0828L37.1068 52.5676L30.0612 42.0725H65.2303L86.4928 9.38018V42.0725H120.463L86.4928 62.0902V62.6183V95.4615L64.7522 74.8989L25.5655 97.9847L24.4248 99.7283L23.2925 101.472L22.1602 103.215L64.358 78.3526L89.2691 101.916V63.6746L130.653 39.2978H89.2691Z" fill="#E01E31"/>
<path d="M213.799 77.7155C213.804 78.5237 213.68 79.3275 213.43 80.0961C213.226 80.7456 212.879 81.3414 212.415 81.8397C211.746 82.5778 210.869 83.0952 209.899 83.3235C208.704 83.5835 207.482 83.7017 206.259 83.6755H195.942V82.7451H196.781V63.6745H195.942V62.7944H208.045H208.465H208.792L209.052 62.8698C209.147 62.874 209.241 62.8968 209.328 62.9369L209.647 63.0291C210.085 63.1595 210.499 63.3605 210.872 63.6242C211.619 64.1247 212.213 64.8207 212.591 65.6361C213.003 66.4736 213.218 67.3939 213.22 68.3269C213.23 69.2784 213.012 70.2184 212.583 71.068C212.41 71.4142 212.183 71.7311 211.912 72.0069C211.794 72.1159 211.677 72.2332 211.543 72.3422L211.149 72.6691L210.796 72.8787H210.729V72.5685C211.039 72.6893 211.334 72.8439 211.61 73.0296C212.122 73.3784 212.566 73.8189 212.918 74.3289C213.566 75.3347 213.875 76.5216 213.799 77.7155ZM210.62 68.3604C210.646 67.9744 210.584 67.5875 210.439 67.2288C210.294 66.8701 210.069 66.5491 209.781 66.2899C209.179 65.792 208.415 65.5324 207.634 65.5606H199.389V71.4285H207.274H208.045C208.254 71.4047 208.461 71.3683 208.666 71.3195C208.85 71.2679 209.027 71.1948 209.194 71.1015C209.389 70.9949 209.571 70.8685 209.739 70.7243C209.799 70.6756 209.855 70.6224 209.907 70.5651C209.973 70.4873 210.034 70.4061 210.092 70.322C210.209 70.137 210.308 69.9403 210.385 69.7352C210.47 69.5304 210.532 69.3167 210.57 69.0981C210.613 68.852 210.63 68.6018 210.62 68.352V68.3604ZM211.006 77.5813C211.027 76.9189 210.823 76.2689 210.427 75.7372C210.029 75.2306 209.493 74.8493 208.884 74.639C208.246 74.3992 207.569 74.2771 206.888 74.2786H199.339V80.859H206.938C207.634 80.8776 208.329 80.7957 209.001 80.6159C209.469 80.4891 209.881 80.2122 210.176 79.8279C210.69 79.1767 210.981 78.3772 211.006 77.5478V77.5813Z" fill="#234825"/>
<path d="M231.514 84.6479H230.734V83.8096H214.923V82.8959H215.762V63.7081H214.923V62.8698H230.7V61.9645H231.48V66.5246H230.7V65.6277H218.278V71.4955H226.666V70.6573H227.505V75.2007H226.666V74.3121H218.278V80.9344H230.709V80.0961H231.489L231.514 84.6479Z" fill="#234825"/>
<path d="M228.855 62.0651H226.129L223.311 59.3239L220.425 62.0651H217.649L223.352 56.1469L228.855 62.0651ZM225.147 86.8525C225.145 87.3223 224.995 87.7795 224.72 88.1602C224.576 88.3463 224.393 88.498 224.183 88.6045C223.957 88.7076 223.71 88.7592 223.462 88.7554C223.218 88.7707 222.975 88.7303 222.749 88.6374C222.524 88.5444 222.323 88.4013 222.161 88.2189C221.85 87.833 221.69 87.3477 221.709 86.8525C221.689 86.3585 221.854 85.8748 222.17 85.4946C222.325 85.3057 222.523 85.1568 222.748 85.0605C222.973 84.9643 223.218 84.9234 223.462 84.9413C223.694 84.9344 223.925 84.9816 224.136 85.079C224.347 85.1765 224.532 85.3216 224.678 85.5029C224.99 85.8829 225.156 86.3612 225.147 86.8525Z" fill="#234825"/>
<path d="M251.401 83.7091H247.249V82.8038H247.861L235.707 67.9497V82.8038H236.496V83.7091H232.361V82.8038H233.158V63.6746H232.361V62.8363H236.496V63.6746H235.892L248.029 78.3693V63.6746H247.19V62.8363H251.342V63.6746H250.503V82.8038H251.342L251.401 83.7091Z" fill="#234825"/>
<path d="M271.38 83.6671H267.261V82.7451H268.05V74.2954H255.879V82.7451H256.668V83.6336H252.524V82.7451H253.304V63.6745H252.524V62.7944H256.668V63.6745H255.879V71.5123H268.05V63.6745H267.261V62.7944H271.38V63.6745H270.541V82.7451H271.38V83.6671Z" fill="#234825"/>
<path d="M298.036 63.6746H297.122L289.959 82.8038H290.646V83.7091H285.991V82.8038H286.729L278.954 63.6746H278.065V62.8363H282.259V63.6746H281.739L288.289 79.9788L294.421 63.6746H293.909V62.8363H298.002L298.036 63.6746Z" fill="#234825"/>
<path d="M303.538 83.7091H299.419V82.8038H300.258V63.6746H299.419V62.8363H303.538V63.6746H302.758V82.8038H303.538V83.7091Z" fill="#234825"/>
<path d="M321.571 84.6479H320.791V83.8096H305.014V82.8959H305.853V63.7081H305.014V62.8698H320.791V61.9645H321.571V66.5246H320.791V65.6277H308.361V71.4955H316.681V70.6573H317.52V75.2007H316.681V74.3121H308.361V80.9344H320.791V80.0961H321.571V84.6479Z" fill="#234825"/>
<path d="M318.929 62.0651H316.203L313.36 59.3239L310.483 62.0651H307.698L313.41 56.1469L318.929 62.0651ZM315.23 86.8525C315.227 87.3223 315.078 87.7795 314.803 88.1602C314.658 88.3485 314.471 88.5006 314.257 88.6045C313.922 88.7509 313.55 88.7924 313.191 88.7236C312.832 88.6547 312.502 88.4788 312.244 88.2189C311.933 87.833 311.772 87.3477 311.791 86.8525C311.772 86.3585 311.937 85.8748 312.253 85.4946C312.41 85.3162 312.604 85.1733 312.821 85.0754C313.038 84.9776 313.273 84.9269 313.511 84.9269C313.749 84.9269 313.984 84.9776 314.201 85.0754C314.418 85.1733 314.612 85.3162 314.769 85.4946C315.071 85.8813 315.225 86.3625 315.205 86.8525H315.23Z" fill="#234825"/>
<path d="M341.458 83.7091H337.264V82.8038H337.877L325.723 67.9497V82.8038H326.512V83.7091H322.368V82.8038H323.207V63.6746H322.368V62.8363H326.512V63.6746H325.933L338.07 78.3693V63.6746H337.231V62.8363H341.425V63.6746H340.586V82.8038H341.425L341.458 83.7091Z" fill="#234825"/>
<path d="M369.976 73.2978V74.2115C369.954 74.5181 369.915 74.8232 369.858 75.1252C369.763 75.7197 369.62 76.3056 369.43 76.8772C369.095 77.9507 368.585 78.9617 367.921 79.8698C367.342 80.6783 366.644 81.3935 365.849 81.9906C367.208 82.8289 367.971 83.2983 368.13 83.357C368.229 83.3431 368.319 83.2921 368.382 83.2145L368.801 82.8289L369.305 83.357L367.166 86.0311L366.386 85.6119L365.874 85.2682L364.649 84.3629L363.383 83.4659C362.846 83.6001 362.209 83.7258 361.487 83.8516C360.89 83.9419 360.288 83.9895 359.684 83.9941C358.019 83.9903 356.393 83.4913 355.012 82.5606C353.537 81.5768 352.346 80.2243 351.556 78.6376C350.697 76.9541 350.259 75.0871 350.282 73.1972C350.278 72.4924 350.354 71.7894 350.508 71.1015C350.66 70.4169 350.87 69.7467 351.137 69.0981C351.637 67.858 352.362 66.7211 353.276 65.745C354.167 64.8002 355.24 64.0447 356.43 63.5237C357.64 62.9931 358.949 62.7246 360.271 62.7357H360.909L361.303 62.786C361.463 62.7847 361.623 62.7987 361.781 62.8279C361.957 62.8279 362.142 62.8949 362.335 62.9369L362.821 63.0542L363.358 63.2051C363.646 63.3018 363.926 63.4194 364.197 63.5572C365.37 64.057 366.418 64.8099 367.266 65.7618C368.128 66.7504 368.804 67.8863 369.263 69.1149C369.739 70.4579 369.98 71.8729 369.976 73.2978ZM367.174 73.2475C367.184 72.1946 367.011 71.1481 366.662 70.1543C366.333 69.2345 365.838 68.3824 365.203 67.6395C364.57 66.9151 363.801 66.3226 362.938 65.8959C362.731 65.7871 362.515 65.6947 362.293 65.6193C362.067 65.5435 361.837 65.4792 361.605 65.4265C361.144 65.3139 360.67 65.2576 360.196 65.2589C359.573 65.2535 358.953 65.3296 358.35 65.4852C357.759 65.6585 357.195 65.9124 356.673 66.2396C355.603 66.9036 354.733 67.8451 354.157 68.964C353.835 69.5906 353.576 70.2477 353.385 70.9255C353.309 71.2608 353.234 71.6129 353.175 71.9817C353.117 72.3506 353.125 72.6943 353.125 73.0715C353.088 74.6359 353.431 76.1861 354.123 77.5897C354.727 78.7962 355.638 79.8225 356.765 80.5656C357.757 81.2362 358.923 81.6033 360.12 81.6218H360.238C360.476 81.6287 360.715 81.6119 360.951 81.5715L361.378 81.4793C361.052 81.1232 360.67 80.8231 360.246 80.5907C359.883 80.4025 359.481 80.302 359.072 80.2973C358.891 80.2937 358.711 80.3106 358.535 80.3476C358.384 80.3476 358.25 80.4231 358.141 80.465L357.83 80.5991L357.587 79.6686C357.944 79.3566 358.349 79.1046 358.787 78.9226C359.178 78.7526 359.601 78.6642 360.028 78.6627H360.405L360.724 78.7214H360.976C361.091 78.7471 361.203 78.7835 361.311 78.8303C361.772 78.9787 362.217 79.1754 362.636 79.4171C362.907 79.5508 363.17 79.6991 363.425 79.8614L363.987 80.2554C366.109 78.6459 367.174 76.3156 367.174 73.2475Z" fill="#234825"/>
<path d="M389.083 63.6745H388.286V77.0113C388.289 77.6144 388.247 78.2168 388.16 78.8136C388.121 79.0975 388.06 79.3779 387.975 79.6519C387.881 79.9378 387.768 80.2177 387.64 80.4901C387.383 81.065 387.018 81.5856 386.566 82.0242C386.113 82.4279 385.586 82.7409 385.015 82.9462C384.199 83.2629 383.357 83.5069 382.498 83.6755L381.66 83.8096L380.821 83.8935C380.414 83.9371 380.005 83.9567 379.596 83.9522C378.359 83.9669 377.127 83.783 375.948 83.4073C374.877 83.0807 373.909 82.4829 373.138 81.6721C372.613 81.1405 372.234 80.4821 372.039 79.7608C371.832 78.9191 371.736 78.0539 371.754 77.1874V63.6745H370.915V62.8363H375.126V63.6745H374.287V77.0868C374.273 77.7473 374.361 78.406 374.547 79.0399C374.722 79.5945 375.083 80.0714 375.57 80.3895C375.839 80.5523 376.119 80.6952 376.409 80.8171C376.771 80.9601 377.141 81.0832 377.516 81.1859L378.808 81.4374L379.537 81.4793H380.225C380.636 81.4793 381.064 81.4793 381.483 81.4122C381.929 81.357 382.37 81.2644 382.8 81.1356L383.421 80.9512C383.6 80.8959 383.774 80.8258 383.941 80.7416C384.21 80.626 384.457 80.4643 384.671 80.2638C385.077 79.9259 385.382 79.4819 385.551 78.9813L385.702 78.143C385.702 77.7909 385.753 77.4388 385.753 77.0784V63.6661H384.914V62.8279H389.066L389.083 63.6745Z" fill="#234825"/>
<path d="M410.102 83.7091H405.581V82.8038H406.269L404.348 77.9754H395.6L393.671 82.8038H394.283V83.7091H390.047V82.8038H390.886L398.611 63.6746H397.865V62.8363H402.151V63.6746H401.446L409.272 82.8038H410.11L410.102 83.7091ZM403.3 75.3851L399.995 66.3905L396.523 75.3851H403.3Z" fill="#234825"/>
<path d="M405.229 61.713H402.503L399.668 59.1395L396.774 61.713H393.998L399.701 56.1469L405.229 61.713Z" fill="#234825"/>
<path d="M429.779 83.7091H425.627V82.8038H426.239L414.094 67.9497V82.8038H414.883V83.7091H410.739V82.8038H411.536V63.6746H410.739V62.8363H414.883V63.6746H414.296L426.441 78.3693V63.6746H425.602V62.8363H429.754V63.6746H428.915V82.8038H429.754L429.779 83.7091Z" fill="#234825"/>
<path d="M458.49 63.6746H457.584L450.178 74.4211V82.8038H450.958V83.7091H446.84V82.8038H447.628V74.4211L439.299 63.6746H438.46V62.8363H443.065V63.6746H442.671L448.945 71.9147L454.674 63.6746H454.279V62.8363H458.473L458.49 63.6746Z" fill="#234825"/>
<path d="M487.183 83.4911H478.997V81.7391H480.532V48.4433L479.752 49.0133L478.863 49.4911C478.042 49.8433 477.157 50.023 476.263 50.0192H476.179V51.6958H474.552V43.2461H476.179V45.0232C476.363 45.0232 476.556 45.0232 476.733 45.0232C476.914 45.0067 477.094 44.973 477.269 44.9226C477.646 44.7947 478.013 44.6406 478.368 44.4615C479.032 44.1047 479.595 43.5856 480.004 42.9527C480.275 42.5338 480.455 42.0625 480.532 41.5695H478.997V39.8259H487.183V41.5695H485.506V81.7391H487.183V83.4911Z" fill="#234825"/>
<path d="M522.579 39.8259V45.9872L502.86 81.9655H504.202V83.7175H494.69V81.9655H496.494L516.037 47.1524H490.564V48.8289H488.937V39.8259H490.564V41.6701H520.994V39.8259H522.579Z" fill="#234825"/>
<path d="M557.975 68.6371C557.949 70.0219 557.769 71.3996 557.438 72.7446C556.96 74.4685 556.151 76.0828 555.056 77.4975C554.056 78.8003 552.825 79.9084 551.424 80.7668C549.95 81.6723 548.346 82.3479 546.668 82.7702C545.793 82.9938 544.905 83.1646 544.01 83.2816C543.06 83.3949 542.105 83.4509 541.149 83.4492C539.776 83.4559 538.406 83.3324 537.056 83.0804C535.767 82.8346 534.504 82.4698 533.282 81.9906C531.364 81.3198 529.555 80.3708 527.914 79.1741C527.419 78.8052 526.958 78.4364 526.53 78.0843L525.591 77.2461L524.567 78.5537L523.401 77.5562L528.493 70.5399L529.684 71.6129L528.669 73.0631C529.201 73.659 529.788 74.2035 530.422 74.6894C531.062 75.2014 531.734 75.6718 532.435 76.0976C533.131 76.4916 533.986 76.9359 535.01 77.3885C537.053 78.2121 539.24 78.6251 541.443 78.604C543.309 78.6105 545.156 78.2339 546.87 77.4975C548.563 76.7773 550.018 75.5913 551.064 74.0774C551.603 73.3295 552.019 72.5004 552.297 71.6213C552.577 70.6832 552.716 69.7084 552.707 68.7293C552.713 67.9888 552.64 67.2498 552.489 66.5247C552.368 65.842 552.133 65.1846 551.793 64.5799C551.239 63.4505 550.422 62.4703 549.411 61.7214C548.364 60.9557 547.211 60.3458 545.989 59.9108C544.852 59.5654 543.671 59.3847 542.483 59.3743C537.685 59.3743 534.205 60.6568 532.015 63.2303L532.955 64.0685L531.999 65.5355L524.567 59.4916L525.624 58.0833L526.085 58.5192V43.2964H524.542V41.6198H553.781V39.8259H555.366V48.8541H553.781V47.1775H531.202V57.6642L531.848 57.2367L533.391 56.3397C534.565 55.748 535.8 55.2843 537.073 54.9566C538.512 54.5537 539.999 54.3478 541.493 54.3447H543.297C543.698 54.3609 544.099 54.4001 544.496 54.462C544.8 54.4673 545.103 54.4953 545.402 54.5458C545.721 54.6045 546.056 54.68 546.408 54.7806C547.623 55.043 548.807 55.4336 549.94 55.9458C551.822 56.6948 553.498 57.8816 554.83 59.4078C555.949 60.7036 556.784 62.2201 557.279 63.859L557.581 65.0493C557.694 65.522 557.781 66.0005 557.841 66.4827C557.891 66.7845 557.925 67.1198 557.95 67.4803C557.975 67.8407 557.975 68.2012 557.975 68.6371Z" fill="#234825"/>
<path d="M207.307 50.9413H205.076V50.4719H205.52V42.718L201.57 51.2515L197.728 42.7096V50.4719H198.148V50.9413H195.9V50.4719H196.328V40.2367H195.9V39.7673H198.592V40.2367H198.223L201.578 47.932L205.042 40.2451H204.665V39.7756H207.257V40.2451H206.829V50.4719H207.257L207.307 50.9413Z" fill="#039949"/>
<path d="M201.57 52.2742L198.148 44.6627V50.0025H198.559V51.4108H195.489V50.0025H195.909V40.7061H195.498V39.2979H198.987V40.7061H198.869L201.595 46.8925L204.388 40.6977H204.263V39.2979H207.693V40.7061H207.265V50.0025H207.685V51.4108H204.615V50.0025H205.068V44.6292L201.57 52.2742ZM205.94 50.4803H206.469V40.2367H205.563L201.621 48.9798L197.762 40.2367H196.747V50.4803H197.309V40.7564L201.579 50.2288L205.94 40.8067V50.4803Z" fill="#039949"/>
<path d="M217.439 51.0922H215.217V50.5976H215.661V40.2451H215.217V39.7924H217.439V40.2451H217.02V50.5976H217.439V51.0922Z" fill="#039949"/>
<path d="M217.884 51.5533H214.822V50.1282H215.275V40.7145H214.856V39.3314H217.917V40.7145H217.439V50.1282H217.859L217.884 51.5533ZM216.106 50.6228H216.634V40.2618H216.106V50.6228Z" fill="#039949"/>
<path d="M233.602 51.5449H233.191V51.0671H225.265V50.5893H225.71V40.2451H225.265V39.7673H227.505V40.2451H227.052V49.533H233.166V49.0636H233.577L233.602 51.5449Z" fill="#039949"/>
<path d="M234.013 52.0059H232.772V51.5365H224.846V50.1282H225.29V40.7145H224.871V39.2979H227.966V40.7145H227.505V49.0971H232.78V48.6277H234.022L234.013 52.0059ZM226.129 50.606H233.183V50.0025H226.666V40.2367H226.129V50.606Z" fill="#039949"/>
<path d="M243.785 51.0922H241.554V50.5976H242.007V40.2451H241.554V39.7924H243.785V40.2451H243.365V50.5976H243.785V51.0922Z" fill="#039949"/>
<path d="M244.204 51.5533H241.143V50.1282H241.595L241.554 40.7145H241.143V39.3314H244.204V40.7145H243.776V50.1282H244.196L244.204 51.5533ZM242.426 50.6228H242.946V40.2618H242.426V50.6228Z" fill="#039949"/>
<path d="M261.306 41.821H260.87V41.3097H257.213V50.6144H257.641V51.109H255.401V50.6144H255.854V41.3097H252.03V41.821H251.577V39.3062H252.03V39.784H260.87V39.3062H261.306V41.821Z" fill="#039949"/>
<path d="M258.061 51.5784H254.991V50.1533H255.444V41.7707L252.441 41.8126V42.282H251.166V38.8703H252.441V39.3397H260.459V38.8787H261.718V42.2904H260.459V41.7791H257.633V50.1617H258.052L258.061 51.5784ZM256.274 50.6395H256.794V40.8318H260.887V40.2618H251.996V40.8318H256.241L256.274 50.6395Z" fill="#039949"/>
<path d="M279.633 51.0922H277.184V50.5976H277.553L276.522 47.9906H271.783L270.743 50.5976H271.07V51.0922H268.771V50.5976H269.241L273.435 40.2451H273.024V39.7924H275.314V40.2451H274.936L279.13 50.5976H279.591L279.633 51.0922ZM275.951 46.5823L274.156 41.7204L272.277 46.5823H275.951Z" fill="#039949"/>
<path d="M280.044 51.5533H276.765V50.1282H276.916L276.253 48.4517H272.059L271.388 50.1282H271.497V51.5533H268.369V50.1282H268.981L272.797 40.7145H272.621V39.3314H275.766V40.7145H275.624L279.474 50.1282H280.078L280.044 51.5533ZM278.023 50.6228H278.727L274.475 40.2618H273.837L269.644 50.6228H270.231L271.472 47.5212H276.748L278.023 50.6228ZM276.572 47.0518H271.648L274.164 40.5217L276.572 47.0518ZM272.915 46.1213H275.314L274.131 42.9108L272.915 46.1213Z" fill="#039949"/>
<path d="M297.264 51.067H294.823V50.5808H295.1L292.533 46.1213H288.859V50.5725H289.279V51.0587H287.056V50.5725H287.476V40.245H287.056V39.7672H293.506C294.301 39.7045 295.091 39.934 295.729 40.4127C296.063 40.7027 296.325 41.0674 296.492 41.4773C296.577 41.6859 296.641 41.902 296.685 42.1228C296.73 42.3548 296.752 42.5906 296.752 42.8269C296.756 43.3606 296.629 43.8871 296.383 44.3609C296.149 44.8171 295.806 45.2087 295.385 45.501C295.196 45.6262 294.997 45.7355 294.789 45.8279L294.488 45.9201C294.372 45.955 294.255 45.9802 294.135 45.9955L296.819 50.5808H297.281L297.264 51.067ZM295.318 42.8772C295.316 42.7393 295.302 42.6018 295.276 42.4665C295.249 42.328 295.207 42.193 295.15 42.0641C295.049 41.8229 294.884 41.6141 294.672 41.4605C294.314 41.252 293.904 41.1502 293.489 41.1671H288.859V44.7298H293.12C293.677 44.7699 294.23 44.6191 294.689 44.3023C294.887 44.1309 295.042 43.9156 295.142 43.6736C295.255 43.4231 295.315 43.152 295.318 42.8772Z" fill="#039949"/>
<path d="M297.683 51.5281H294.404V50.2372L292.307 46.5907H289.271V50.1198H289.69V51.5281H286.62V50.1198H287.039V40.7145H286.628V39.2978H293.49C294.392 39.2252 295.289 39.4911 296.006 40.0439C296.39 40.3821 296.691 40.8036 296.887 41.2761C296.985 41.5137 297.058 41.7609 297.105 42.0138C297.158 42.2899 297.184 42.5708 297.18 42.8521C297.185 43.4668 297.041 44.0735 296.761 44.6208C296.491 45.1394 296.099 45.5851 295.62 45.9201C295.41 46.0659 295.185 46.1895 294.949 46.289H294.832L297.063 50.1031H297.717L297.683 51.5281ZM295.595 50.5976H296.283L293.381 45.6435L294.026 45.5429C294.135 45.5429 294.244 45.501 294.345 45.4675L294.605 45.3836C294.784 45.3078 294.955 45.2152 295.117 45.107C295.472 44.8526 295.759 44.5161 295.955 44.1262C296.158 43.7234 296.262 43.2779 296.257 42.8269C296.259 42.6246 296.242 42.4226 296.207 42.2234C296.167 42.0346 296.111 41.8496 296.039 41.6701C295.899 41.3282 295.681 41.0239 295.402 40.7816C294.832 40.3676 294.132 40.174 293.431 40.2367H287.895V50.5893H288.457V45.6686H292.777L295.595 50.5976ZM293.121 45.1992H288.44V40.6977H293.473C293.959 40.6816 294.44 40.8068 294.857 41.0582C295.147 41.2706 295.371 41.5614 295.503 41.8964C295.575 42.0575 295.628 42.2263 295.662 42.3994C295.696 42.5677 295.713 42.739 295.712 42.9108C295.711 43.2541 295.64 43.5936 295.503 43.9083C295.379 44.2298 295.181 44.5172 294.924 44.7466C294.39 45.0945 293.755 45.2539 293.121 45.1992ZM289.271 44.2603H293.121C293.587 44.2997 294.054 44.1816 294.446 43.925C294.589 43.7984 294.701 43.6407 294.773 43.464C294.854 43.2788 294.896 43.0793 294.899 42.8772C294.907 42.7768 294.907 42.6758 294.899 42.5754C294.873 42.4725 294.839 42.3716 294.798 42.2737C294.733 42.1049 294.619 41.9591 294.471 41.8545C294.178 41.6945 293.848 41.6163 293.515 41.6282H289.321L289.271 44.2603Z" fill="#039949"/>
<path d="M315.633 40.2451H315.138L311.129 46.0626V50.5976H311.548V51.0922H309.325V50.5976H309.745V46.0626L305.241 40.2451H304.779V39.7924H307.296V40.2451H307.077L310.474 44.7046L313.578 40.2451H313.36V39.7924H315.641L315.633 40.2451Z" fill="#039949"/>
<path d="M311.967 51.5533H308.906V50.1282H309.334V46.2303L305.056 40.7145H304.36V39.3314H307.715V40.354L310.458 43.967L312.974 40.396V39.3314H316.077V40.7145H315.373L311.582 46.2135V50.1282H312.001L311.967 51.5533ZM310.164 50.6228H310.718V45.9285L314.601 40.287H314.081L310.483 45.4675L306.532 40.287H305.803L310.164 45.9117V50.6228Z" fill="#039949"/>
<path d="M342.725 51.0671H340.494V50.5809H340.921V45.9956H334.337V50.5809H334.765V51.0671H332.517V50.5809H332.945V40.2451H332.517V39.7673H334.765V40.2451H334.337V44.4867H340.921V40.2451H340.494V39.7673H342.725V40.2451H342.28V50.5809H342.725V51.0671Z" fill="#039949"/>
<path d="M343.144 51.5281H340.082V50.1198H340.51V46.4566H334.748V50.1198H335.159V51.5281H332.089V50.1198H332.508V40.7145H332.097V39.2979H335.167V40.7145H334.739V44.0173H340.502V40.7145H340.091V39.2979H343.152V40.7145H342.699V50.1198H343.119L343.144 51.5281ZM341.34 50.5976H341.86V40.2367H341.34V44.9394H333.917V40.2283H333.355V50.5809H333.917V45.5513H341.34V50.5976Z" fill="#039949"/>
<path d="M362.108 45.4004C362.121 46.2014 361.973 46.9968 361.672 47.7392C361.537 48.0945 361.36 48.4323 361.144 48.7451C360.933 49.0462 360.694 49.3269 360.431 49.5834C359.882 50.0948 359.241 50.4986 358.543 50.7737C358.169 50.9057 357.785 51.0093 357.394 51.0839C356.999 51.1589 356.597 51.1981 356.195 51.2012C355.784 51.2038 355.375 51.1702 354.97 51.1006C354.58 51.0296 354.2 50.9114 353.838 50.7485C353.127 50.4535 352.481 50.0237 351.934 49.4828C351.673 49.2243 351.434 48.9438 351.221 48.6445C351.129 48.4852 351.028 48.326 350.944 48.1583C350.85 47.9872 350.766 47.8109 350.693 47.6302C350.401 46.929 350.253 46.1766 350.256 45.4172C350.256 43.8887 350.858 42.4216 351.934 41.3349C352.484 40.7937 353.133 40.3639 353.846 40.0691L354.392 39.8763L354.962 39.7338C355.366 39.657 355.775 39.6177 356.186 39.6164C356.99 39.6102 357.787 39.7582 358.535 40.0523C359.237 40.3091 359.875 40.7152 360.405 41.2426C360.943 41.7665 361.368 42.3939 361.655 43.0868C361.959 43.8201 362.113 44.6068 362.108 45.4004ZM360.607 45.4004C360.618 44.6179 360.439 43.8443 360.087 43.1455C359.739 42.4812 359.214 41.9267 358.569 41.5444C358.221 41.3437 357.849 41.1888 357.461 41.0834C357.048 40.9742 356.622 40.9207 356.195 40.9241C355.549 40.913 354.908 41.0298 354.308 41.2678C353.778 41.4786 353.302 41.8052 352.915 42.2234C352.544 42.6447 352.259 43.1345 352.077 43.6652C351.875 44.2214 351.772 44.8088 351.775 45.4004C351.762 46.1868 351.944 46.964 352.303 47.6637C352.653 48.3307 353.182 48.8878 353.83 49.2732C354.547 49.6898 355.366 49.8988 356.195 49.8768C357.014 49.8933 357.823 49.6876 358.535 49.2816C359.185 48.8934 359.717 48.3336 360.07 47.6637C360.43 46.9641 360.614 46.1872 360.607 45.4004Z" fill="#039949"/>
<path d="M356.195 51.6706C355.762 51.6697 355.33 51.6333 354.903 51.5616C354.484 51.4845 354.076 51.3579 353.687 51.1844C352.928 50.8694 352.238 50.4079 351.657 49.8264C351.375 49.5437 351.119 49.2349 350.894 48.9043C350.785 48.7283 350.684 48.5606 350.584 48.3762C350.483 48.1918 350.399 48.0074 350.315 47.8146C349.683 46.2671 349.683 44.5336 350.315 42.9862C350.624 42.2326 351.08 41.5485 351.657 40.9743C352.246 40.3979 352.937 39.9372 353.696 39.6163L354.87 39.2643C356.141 39.0037 357.461 39.1172 358.669 39.5912C359.423 39.8727 360.109 40.3097 360.682 40.8737C360.965 41.1509 361.22 41.454 361.446 41.7791C361.678 42.1214 361.875 42.4866 362.033 42.8688C362.355 43.668 362.52 44.5219 362.519 45.3836C362.527 46.2452 362.365 47.0999 362.041 47.8984C361.885 48.2785 361.694 48.6433 361.471 48.9881C361.24 49.3139 360.979 49.617 360.691 49.8935C360.108 50.448 359.421 50.8811 358.669 51.1676C358.273 51.3108 357.867 51.4229 357.453 51.5029C357.04 51.599 356.619 51.6551 356.195 51.6706ZM356.195 40.069C355.807 40.0686 355.419 40.1051 355.038 40.178L353.972 40.4965C353.318 40.772 352.723 41.1704 352.219 41.6701C351.732 42.1477 351.344 42.7176 351.079 43.3466C350.812 43.9867 350.675 44.6734 350.676 45.3668C350.676 46.0593 350.81 46.7453 351.07 47.3871C351.137 47.5463 351.221 47.714 351.305 47.8732C351.384 48.0259 351.47 48.1743 351.565 48.3175C351.753 48.5992 351.969 48.8605 352.211 49.0971C352.718 49.607 353.323 50.0091 353.989 50.2791C354.322 50.4346 354.675 50.5446 355.038 50.606C355.792 50.744 356.565 50.744 357.319 50.606C357.691 50.5421 358.056 50.4439 358.409 50.3126C359.057 50.0634 359.649 49.6904 360.154 49.2145C360.403 48.9828 360.625 48.7241 360.817 48.4433C361.009 48.1574 361.17 47.8509 361.295 47.5295C361.571 46.8483 361.708 46.1186 361.697 45.3836C361.701 44.6511 361.562 43.925 361.286 43.246C361.154 42.9276 360.988 42.6241 360.791 42.3407C360.605 42.0583 360.388 41.797 360.146 41.5611C359.648 41.0785 359.057 40.702 358.409 40.4546C357.701 40.1908 356.951 40.0601 356.195 40.069ZM356.195 50.3377C355.296 50.3599 354.408 50.1337 353.628 49.6839C352.918 49.2511 352.339 48.6341 351.951 47.8984C351.555 47.1202 351.356 46.2566 351.372 45.3836C351.37 44.7324 351.48 44.0857 351.699 43.4724C351.901 42.8851 352.218 42.3438 352.63 41.8797C353.055 41.4211 353.576 41.0631 354.157 40.8318C355.227 40.4194 356.4 40.3491 357.512 40.6307C357.937 40.747 358.345 40.9159 358.728 41.1336C359.443 41.5606 360.024 42.1791 360.406 42.9191C360.786 43.6939 360.984 44.5456 360.984 45.4087C360.984 46.2719 360.786 47.1236 360.406 47.8984C360.021 48.6386 359.441 49.2592 358.728 49.6923C357.958 50.1324 357.082 50.3555 356.195 50.3377ZM356.195 41.3851C355.598 41.3753 355.005 41.4836 354.45 41.7036C353.978 41.8839 353.553 42.1707 353.209 42.5419C352.879 42.9132 352.625 43.3462 352.463 43.816C352.285 44.3197 352.195 44.8497 352.194 45.3836C352.183 46.0879 352.345 46.7842 352.664 47.4122C352.977 48.0056 353.447 48.5015 354.023 48.8456C354.686 49.2008 355.426 49.3866 356.178 49.3866C356.93 49.3866 357.671 49.2008 358.334 48.8456C358.919 48.5037 359.396 48.004 359.709 47.4038C360.018 46.7736 360.179 46.0811 360.179 45.3794C360.179 44.6776 360.018 43.9852 359.709 43.355C359.4 42.7643 358.932 42.271 358.359 41.9299C358.041 41.7453 357.7 41.6043 357.344 41.5108C356.968 41.4191 356.582 41.3768 356.195 41.3851Z" fill="#039949"/>
<path d="M379.714 47.4374C379.738 48.205 379.472 48.9537 378.967 49.533C378.447 50.1042 377.788 50.5315 377.055 50.7736C376.289 51.0406 375.484 51.1767 374.673 51.176H374.178H374.069C373.922 51.1704 373.776 51.1507 373.633 51.1173L373.289 51.0335C372.904 50.951 372.528 50.8332 372.165 50.6814C371.989 50.606 371.821 50.5222 371.645 50.43L371.385 50.2874L371.091 50.1198L370.11 49.533L369.841 50.0024L369.456 49.7845L370.563 47.6301L370.923 47.8649L370.705 48.2924L370.89 48.4349L371.091 48.569L371.519 48.8372L372.047 49.1306C372.24 49.2228 372.442 49.3235 372.66 49.4073L373.347 49.6588L373.725 49.751L374.06 49.8348L374.396 49.8767H374.723C375.029 49.8794 375.334 49.8598 375.637 49.818C375.922 49.7758 376.203 49.7085 376.476 49.6168C376.954 49.4781 377.395 49.2347 377.768 48.9043C378.061 48.6529 378.254 48.305 378.313 47.9235V47.6553C378.32 47.3781 378.228 47.1074 378.053 46.8925C377.849 46.6753 377.592 46.5162 377.306 46.4314L376.795 46.3141C376.607 46.2719 376.416 46.2411 376.224 46.2219L375.478 46.1548H374.639C373.992 46.1634 373.346 46.1101 372.71 45.9955L372.282 45.895C372.157 45.8637 372.034 45.8245 371.913 45.7776C371.681 45.6998 371.454 45.6075 371.234 45.501C370.831 45.2961 370.494 44.9824 370.261 44.5956L370.118 44.3023L370.018 43.9837C369.956 43.7683 369.925 43.5454 369.925 43.3215V43.1203C369.918 43.0534 369.918 42.986 369.925 42.9191C369.925 42.9191 369.925 42.8437 369.925 42.785C369.925 42.7263 369.925 42.6592 369.984 42.5838C370.091 42.0982 370.309 41.6438 370.621 41.2557C370.932 40.8676 371.328 40.5562 371.779 40.3456C372.003 40.242 372.233 40.1496 372.467 40.069C372.551 40.0347 372.638 40.0066 372.727 39.9852L373.196 39.851C373.687 39.7433 374.187 39.6871 374.689 39.6834C374.966 39.6834 375.235 39.6834 375.528 39.7253L375.906 39.7756H376.107C376.167 39.782 376.226 39.7961 376.283 39.8175C376.388 39.8327 376.492 39.8551 376.593 39.8846L376.895 39.9684C377.081 40.0164 377.261 40.0839 377.432 40.1696L377.684 40.2702L378.07 40.4546L378.959 40.8737L379.185 40.4462L379.546 40.6558L378.464 42.852L378.112 42.6173L378.313 42.1898L378.044 42.0054L377.709 41.8126L377.273 41.603L376.753 41.3935L376.14 41.2258L375.478 41.1001H375.142H374.798C374.337 41.0946 373.876 41.1367 373.423 41.2258C373.222 41.2589 373.026 41.3123 372.836 41.3851L372.559 41.4773L372.282 41.6114C371.977 41.7511 371.714 41.9678 371.519 42.2401C371.348 42.4864 371.254 42.7784 371.251 43.0784V43.1706C371.245 43.3493 371.289 43.5261 371.376 43.6819C371.481 43.8433 371.622 43.9782 371.787 44.0759C372.148 44.279 372.543 44.4127 372.953 44.4699L373.867 44.5873C374.216 44.6247 374.566 44.6443 374.916 44.6459C375.168 44.6459 375.419 44.6459 375.671 44.6459L376.191 44.6962H376.551C376.627 44.6962 376.845 44.7381 377.214 44.8052L377.449 44.8555L377.701 44.9142L377.944 44.9896L378.179 45.0902C378.321 45.143 378.456 45.2134 378.581 45.2998C378.704 45.3805 378.817 45.4763 378.917 45.5848C379.414 46.0747 379.7 46.7396 379.714 47.4374Z" fill="#039949"/>
<path d="M374.673 51.6454H374.06L373.566 51.57C373.438 51.5466 373.312 51.5158 373.188 51.4778C372.791 51.3845 372.401 51.2612 372.022 51.109C371.833 51.0298 371.648 50.9402 371.469 50.8407C371.412 50.8195 371.359 50.7914 371.309 50.7569L370.253 50.1366L369.993 50.5976L368.877 49.9689L370.42 46.9763L371.494 47.6972L371.267 48.1331L372.232 48.7032C372.4 48.787 372.593 48.8792 372.802 48.963L374.153 49.3738H374.43C374.816 49.4014 375.204 49.3874 375.587 49.3319C375.849 49.2932 376.107 49.2315 376.359 49.1474C376.781 49.0256 377.171 48.8108 377.499 48.5187C377.712 48.3419 377.855 48.0953 377.902 47.823V47.6302C377.907 47.4647 377.851 47.3032 377.743 47.1775C377.586 47.0233 377.392 46.9109 377.181 46.8506L376.711 46.7416C376.537 46.7047 376.36 46.6795 376.183 46.6662L374.656 46.5656C373.989 46.5732 373.323 46.5143 372.668 46.3895L372.224 46.289L371.821 46.1632C371.576 46.0835 371.338 45.9854 371.108 45.8698C370.629 45.6278 370.228 45.2559 369.951 44.7968L369.657 44.0927C369.583 43.8195 369.546 43.5375 369.548 43.2544V43.0532C369.536 42.9502 369.536 42.8462 369.548 42.7431V42.6257C369.569 42.5288 369.597 42.4335 369.632 42.3407C369.751 41.7963 369.994 41.2865 370.342 40.8506C370.689 40.4146 371.132 40.0641 371.636 39.8259C371.897 39.7086 372.14 39.6164 372.366 39.5325L372.635 39.4403L373.129 39.3062C373.931 39.1336 374.755 39.0883 375.57 39.1721L376.082 39.2308C376.188 39.2412 376.292 39.2637 376.392 39.2978L376.694 39.3649L377.021 39.4487C377.219 39.5089 377.412 39.5817 377.6 39.6666L378.791 40.2199L379.026 39.7589L380.125 40.396L378.632 43.4305L377.558 42.7179L377.768 42.2988L377.114 41.9635L376.619 41.7623L375.117 41.4605H374.807C374.371 41.4573 373.935 41.4967 373.507 41.5779C373.328 41.6133 373.151 41.6609 372.978 41.7204L372.702 41.821C372.624 41.8519 372.548 41.8883 372.475 41.93C372.227 42.0351 372.012 42.2061 371.855 42.4245C371.745 42.5827 371.684 42.769 371.678 42.961V43.1119C371.674 43.1987 371.691 43.2852 371.729 43.3634C371.8 43.47 371.895 43.5589 372.006 43.6233C372.323 43.7893 372.666 43.8999 373.02 43.9502L373.918 44.0592C374.463 44.1262 375.101 44.0592 375.721 44.1598L376.56 44.2268C376.797 44.2505 377.032 44.2869 377.265 44.3358L377.508 44.3861L377.801 44.4615L378.053 44.537L378.321 44.6543C378.483 44.7156 378.638 44.7943 378.783 44.889C378.927 44.9912 379.062 45.1063 379.185 45.2327C379.727 45.8261 380.026 46.6008 380.024 47.4038C380.061 48.2909 379.762 49.1591 379.185 49.8348C378.615 50.451 377.9 50.915 377.105 51.1844C376.324 51.4678 375.503 51.6235 374.673 51.6454ZM374.237 50.7066H374.597C375.39 50.7144 376.179 50.5868 376.929 50.3294C377.597 50.1103 378.198 49.7235 378.674 49.2061C379.101 48.7185 379.323 48.0849 379.294 47.4374C379.295 46.8811 379.085 46.3451 378.707 45.9369C378.63 45.8538 378.543 45.7806 378.447 45.7189C378.349 45.651 378.242 45.5974 378.128 45.5597L377.902 45.4591C377.834 45.434 377.764 45.4144 377.692 45.4004L377.457 45.3333L377.231 45.2914C377.035 45.2446 376.836 45.211 376.635 45.1908L375.721 45.1238C375.084 45.0483 374.455 45.1238 373.91 45.0232L372.995 44.9058C372.536 44.8436 372.092 44.6957 371.687 44.4699C371.453 44.3297 371.255 44.1375 371.108 43.9083C370.987 43.6963 370.924 43.4565 370.924 43.2125V43.0532C370.917 42.639 371.037 42.2327 371.267 41.8881C371.506 41.5575 371.827 41.2947 372.198 41.1252C372.297 41.0649 372.401 41.0144 372.509 40.9744L372.811 40.8654C373.015 40.7905 373.225 40.7344 373.44 40.6977C373.915 40.6019 374.398 40.5569 374.882 40.5636H375.604L376.937 40.8737L377.961 41.318L378.598 41.712L378.85 41.2174L377.374 40.5384C377.216 40.4588 377.05 40.3969 376.879 40.354L376.594 40.2702C376.497 40.2442 376.399 40.2246 376.3 40.2115L375.57 40.0942C374.836 40.0247 374.095 40.067 373.373 40.2199L372.945 40.3373L372.71 40.4127C372.484 40.4965 372.257 40.5804 372.031 40.681C371.642 40.8644 371.302 41.1343 371.034 41.47C370.766 41.8057 370.579 42.1982 370.487 42.6173C370.487 42.7179 370.445 42.7515 370.437 42.785V43.2293C370.433 43.4049 370.456 43.5802 370.504 43.749L370.722 44.2855C370.911 44.5868 371.181 44.8282 371.502 44.9813C371.702 45.0835 371.91 45.1704 372.123 45.2411L372.467 45.3501L372.878 45.4423C373.489 45.5537 374.11 45.6071 374.732 45.6016L376.317 45.7022C376.543 45.7022 376.745 45.7608 376.929 45.7944L377.449 45.9201C377.813 46.0259 378.143 46.2254 378.405 46.4985C378.661 46.8068 378.798 47.1963 378.791 47.5966V47.8649C378.726 48.3781 378.479 48.851 378.095 49.1977C377.682 49.581 377.19 49.8674 376.652 50.036C376.36 50.1323 376.06 50.2025 375.755 50.2456C375.313 50.3082 374.866 50.325 374.421 50.2959L374.069 50.2539L373.314 50.0695L372.584 49.8096C372.349 49.7091 372.131 49.6168 371.938 49.5162L370.731 48.7786C370.667 48.7445 370.608 48.7022 370.554 48.6528L370.336 49.072L371.771 49.9689C371.934 50.0561 372.102 50.1344 372.274 50.2036C372.618 50.3497 372.975 50.4647 373.339 50.5473L373.658 50.6228C373.782 50.6493 373.908 50.6661 374.035 50.6731L374.237 50.7066Z" fill="#039949"/>
<path d="M396.598 42.7934V43.0532V43.3047C396.585 43.4243 396.56 43.5423 396.523 43.6568C396.523 43.7322 396.523 43.7993 396.472 43.8496L396.405 44.0508C396.363 44.1681 396.313 44.2855 396.254 44.4112C396.199 44.5331 396.134 44.6508 396.061 44.7633C395.986 44.8639 395.902 44.9813 395.793 45.107C395.477 45.4479 395.082 45.7068 394.644 45.8614C394.106 46.0529 393.537 46.1439 392.966 46.1297H389.049V50.5976H389.502V51.0922H387.254V50.5976H387.707V40.2451H387.271V39.7924H393.402C394.193 39.735 394.979 39.9543 395.625 40.4127C395.953 40.7003 396.206 41.0626 396.363 41.4689C396.522 41.8925 396.601 42.3413 396.598 42.7934ZM395.197 42.8856C395.201 42.5984 395.147 42.3134 395.038 42.0473C394.931 41.7983 394.76 41.5816 394.543 41.4186C394.388 41.3171 394.219 41.2407 394.04 41.1923L393.637 41.1504H393.025H389.058V44.713H393.025C393.578 44.746 394.126 44.5957 394.585 44.2855C394.787 44.1139 394.947 43.8987 395.053 43.6561C395.159 43.4136 395.208 43.1501 395.197 42.8856Z" fill="#039949"/>
<path d="M389.921 51.5533H386.868V50.1282H387.313V40.7145H386.868V39.3314H393.419C394.298 39.2713 395.17 39.5203 395.885 40.0355C396.263 40.3768 396.551 40.8057 396.724 41.2846C396.911 41.7657 397.007 42.2772 397.009 42.7934V43.0533V43.3551C396.995 43.5034 396.964 43.6497 396.916 43.791L396.866 43.9921C396.866 44.0676 396.816 44.143 396.782 44.2268C396.739 44.3684 396.682 44.5059 396.615 44.6376C396.549 44.7753 396.476 44.9096 396.396 45.04C396.313 45.1573 396.212 45.2831 396.094 45.4256C395.728 45.8046 395.276 46.0918 394.778 46.2638C394.207 46.4635 393.604 46.56 392.999 46.5488H389.468V50.0863H389.879L389.921 51.5533ZM388.118 50.6228H388.638V45.6854H392.974C393.488 45.6973 393.999 45.6178 394.484 45.4507C394.861 45.3147 395.201 45.0906 395.474 44.7969C395.558 44.7058 395.633 44.6076 395.7 44.5035C395.761 44.4126 395.814 44.3174 395.86 44.2185C395.914 44.1207 395.957 44.0166 395.985 43.9083L396.094 43.5562C396.126 43.4728 396.146 43.3853 396.153 43.2964C396.153 43.179 396.153 43.0868 396.153 43.003V42.8186C396.152 42.4318 396.081 42.0483 395.944 41.6869C395.81 41.348 395.597 41.0462 395.323 40.8067C394.747 40.4148 394.055 40.2314 393.36 40.287H388.084L388.118 50.6228ZM393.025 45.1992H388.638V40.6978L394.081 40.7648C394.379 40.8269 394.657 40.9621 394.89 41.1582C395.123 41.3542 395.303 41.6051 395.415 41.8881C395.545 42.2075 395.61 42.5493 395.608 42.894C395.622 43.2313 395.559 43.5674 395.424 43.8768C395.289 44.1862 395.085 44.4607 394.828 44.6795C394.3 45.0447 393.666 45.2272 393.025 45.1992ZM389.468 44.2604H393.025C393.492 44.2947 393.958 44.1739 394.35 43.9167C394.496 43.7915 394.611 43.6337 394.685 43.4561C394.76 43.2785 394.791 43.086 394.778 42.894C394.783 42.6839 394.743 42.4752 394.66 42.2821C394.585 42.1047 394.464 41.9511 394.308 41.8378C394.196 41.7636 394.071 41.7123 393.939 41.6869L393.016 41.6282H389.468V44.2604Z" fill="#039949"/>
<path d="M406.822 51.0922H404.591V50.5976H405.044V40.2451H404.591V39.7924H406.822V40.2451H406.395V50.5976H406.822V51.0922Z" fill="#039949"/>
<path d="M407.233 51.5533H404.172V50.1282H404.625V40.7145H404.205V39.3314H407.267V40.7145H406.848V50.1282H407.259L407.233 51.5533ZM405.455 50.6228H405.984V40.2618H405.455V50.6228Z" fill="#039949"/>
<path d="M424.335 41.821H423.908V41.3097H420.251V50.6144H420.67V51.109H418.439V50.6144H418.892V41.3097H415.059V41.821H414.614V39.3062H415.059V39.784H423.908V39.3062H424.335V41.821Z" fill="#039949"/>
<path d="M421.09 51.5784H418.02V50.1533H418.473V41.7707L415.479 41.8126V42.282H414.195V38.8703H415.479V39.3397H423.489V38.8787H424.755V42.2904H423.489V41.7791H420.662V50.1617H421.081L421.09 51.5784ZM419.303 50.6395H419.832V40.8318H423.925V40.2618H415.026V40.8318H419.27L419.303 50.6395Z" fill="#039949"/>
<path d="M442.663 51.0922H440.213V50.5976H440.591L439.551 47.9906H434.812L433.772 50.5976H434.107V51.0922H431.809V50.5976H432.279L436.473 40.2451H436.07V39.7924H438.385V40.2451H438.007L442.226 50.5976H442.679L442.663 51.0922ZM438.98 46.5823L437.194 41.7204L435.315 46.5823H438.98Z" fill="#039949"/>
<path d="M443.065 51.5533H439.786V50.1282H439.937L439.266 48.4517H435.072L434.401 50.1282H434.51V51.5533H431.381V50.1282H432.002L435.785 40.7145H435.609V39.3314H438.762V40.7145H438.611L442.47 50.1282H443.065V51.5533ZM441.035 50.6228H441.748L437.504 40.2618H436.875L432.681 50.6228H433.269L434.502 47.5212H439.777L441.035 50.6228ZM439.584 47.0518H434.678L437.194 40.5217L439.584 47.0518ZM435.927 46.1213H438.343L437.169 42.9108L435.927 46.1213Z" fill="#039949"/>
<path d="M458.406 51.5449H458.003V51.0671H450.077V50.5893H450.522V40.2451H450.077V39.7673H452.342V40.2451H451.889V49.533H458.003V49.0636H458.406V51.5449Z" fill="#039949"/>
<path d="M458.825 52.0059H457.584V51.5365H449.658V50.1282H450.102V40.7145H449.683V39.2979H452.778V40.7145H452.291V49.0971H457.567V48.6277H458.809L458.825 52.0059ZM450.933 50.606H457.995V50.0025H451.453V40.2367H450.907L450.933 50.606Z" fill="#039949"/>
</g>
<defs>
<clipPath id="clip0_1_874">
<rect width="558" height="136" fill="white"/>
</clipPath>
</defs>
</svg>
