<svg width="361" height="88" viewBox="0 0 361 88" fill="none" xmlns="http://www.w3.org/2000/svg">
<g clip-path="url(#clip0_12_2403)">
<path fill-rule="evenodd" clip-rule="evenodd" d="M18.7861 76.4359C25.6059 79.3051 32.7927 81.2093 40.1389 82.0932C33.329 80.9712 26.679 79.0335 20.3326 76.322L18.7861 76.4197V76.4359Z" fill="white"/>
<path fill-rule="evenodd" clip-rule="evenodd" d="M91.6027 64.2317C89.3582 66.4744 88.0955 69.5156 88.0918 72.6878C88.9121 71.8654 89.8222 71.1376 90.805 70.5182C91.5218 68.4992 91.792 66.3489 91.5972 64.2155L91.6027 64.2317Z" fill="white"/>
<path fill-rule="evenodd" clip-rule="evenodd" d="M76.5662 72.8235C74.9172 73.6136 73.4676 74.7652 72.3252 76.1926C71.1828 77.62 70.377 79.2865 69.9678 81.0681C70.9735 80.7195 71.9528 80.2989 72.898 79.8097C74.9832 78.0465 76.299 75.5405 76.5662 72.8235Z" fill="white"/>
<path fill-rule="evenodd" clip-rule="evenodd" d="M35.2549 80.5582C36.7238 78.7972 38.5935 77.4138 40.7074 76.5239C42.8213 75.6339 45.1178 75.2634 47.4045 75.4433C45.3045 79.1533 38.858 81.3989 35.2549 80.5582Z" fill="white"/>
<path fill-rule="evenodd" clip-rule="evenodd" d="M62.6093 82.3373C61.448 82.5077 60.2989 82.7523 59.1689 83.0695C60.9956 79.7024 63.8461 77.0032 67.3085 75.3619C66.7017 78.2106 65.0108 80.7119 62.593 82.3373H62.6093Z" fill="white"/>
<path fill-rule="evenodd" clip-rule="evenodd" d="M51.2844 82.961C50.0932 82.902 48.8991 82.9602 47.7192 83.1346C48.7655 81.2617 50.2118 79.6423 51.9554 78.3917C53.6989 77.1411 55.6968 76.29 57.8069 75.8989C56.4557 78.891 54.1711 81.365 51.2952 82.9502L51.2844 82.961Z" fill="white"/>
<path fill-rule="evenodd" clip-rule="evenodd" d="M109.2 46.967C107.865 47.797 106.763 48.9529 105.998 50.3259C105.233 51.6989 104.83 53.2439 104.827 54.8156C106.138 53.96 107.221 52.7984 107.983 51.4311C108.745 50.0638 109.163 48.5317 109.2 46.967Z" fill="white"/>
<path fill-rule="evenodd" clip-rule="evenodd" d="M102.059 56.8659C101.054 57.8377 100.208 58.9615 99.5522 60.1962C99.5962 57.4517 100.54 54.7974 102.238 52.6405C102.647 54.0301 102.584 55.5158 102.059 56.8659Z" fill="white"/>
<path fill-rule="evenodd" clip-rule="evenodd" d="M87.75 74.2663C89.6773 74.3495 91.6008 74.0319 93.3989 73.3336C95.197 72.6352 96.8304 71.5712 98.1958 70.2091C96.2552 69.9763 94.2872 70.2247 92.4654 70.9323C90.6437 71.6399 89.0242 72.7849 87.75 74.2663Z" fill="white"/>
<path fill-rule="evenodd" clip-rule="evenodd" d="M79.2358 78.9472C83.2535 79.6486 87.3862 78.7512 90.7506 76.4467C88.7748 75.9107 86.6989 75.8581 84.6984 76.2933C82.698 76.7286 80.8318 77.6388 79.2575 78.9472H79.2358Z" fill="white"/>
<path fill-rule="evenodd" clip-rule="evenodd" d="M69.3438 82.3427C71.4082 83.1068 73.6128 83.4184 75.8082 83.2565C78.0037 83.0946 80.1387 82.463 82.0686 81.4043C79.9985 80.6696 77.7981 80.3736 75.6074 80.5351C73.4166 80.6967 71.2835 81.3123 69.3438 82.3427Z" fill="white"/>
<path fill-rule="evenodd" clip-rule="evenodd" d="M58.4692 84.1977C62.3936 86.0256 66.829 86.4433 71.0259 85.3802C69.2023 84.1409 67.0949 83.3827 64.8996 83.1759C62.7042 82.9692 60.4922 83.3207 58.4692 84.1977Z" fill="white"/>
<path fill-rule="evenodd" clip-rule="evenodd" d="M46.96 84.1218C48.8121 85.6878 50.9937 86.8161 53.3425 87.4228C55.6912 88.0294 58.1466 88.0988 60.5259 87.6258C58.7186 85.9856 56.5392 84.8096 54.1758 84.1991C51.8124 83.5887 49.3359 83.5622 46.96 84.1218Z" fill="white"/>
<path fill-rule="evenodd" clip-rule="evenodd" d="M32.8135 81.7786C34.6035 83.8805 36.8609 85.5345 39.405 86.6082C41.9491 87.6819 44.7092 88.1456 47.4647 87.962C45.5783 85.9808 43.3039 84.4093 40.7832 83.3454C38.2625 82.2816 35.5495 81.7482 32.8135 81.7786Z" fill="white"/>
<path fill-rule="evenodd" clip-rule="evenodd" d="M94.5977 68.251C95.5819 66.7258 96.9442 65.4812 98.5521 64.6381C100.16 63.7951 101.959 63.3823 103.774 63.4399C102.796 64.9648 101.439 66.2098 99.8349 67.0532C98.2312 67.8965 96.4359 68.3092 94.6248 68.251H94.5977Z" fill="white"/>
<path fill-rule="evenodd" clip-rule="evenodd" d="M99.6499 61.9971C100.446 60.5547 101.55 59.3054 102.883 58.3379C104.217 57.3704 105.748 56.7086 107.366 56.3994C106.694 57.9342 105.625 59.2621 104.269 60.2461C102.912 61.23 101.318 61.8345 99.6499 61.9971Z" fill="white"/>
<path fill-rule="evenodd" clip-rule="evenodd" d="M82.2258 76.1376C81.3793 76.6366 80.5219 77.1247 79.6646 77.6075C79.6886 75.9553 80.0857 74.3299 80.8261 72.8525C81.5665 71.3751 82.6311 70.084 83.9405 69.0754C84.0459 71.5405 83.4514 73.985 82.2258 76.1267V76.1376Z" fill="white"/>
<path fill-rule="evenodd" clip-rule="evenodd" d="M96.6543 64.7796C95.8268 65.2035 95.1391 65.857 94.6737 66.6617C94.6323 63.9561 95.5513 61.3234 97.2675 59.2308C97.5777 61.1015 97.3656 63.0216 96.6543 64.7796Z" fill="white"/>
<path fill-rule="evenodd" clip-rule="evenodd" d="M55.4791 35.034H39.9868L45.0605 27.2288H55.9566V26.6268H44.7349L39.2706 35.034V38.6302H48.2024L26.1442 51.648L37.7186 33.8516V27.2288L22.248 51.0188H12.9527L24.0062 34.0143L14.9333 25.428L0.775904 47.2111C0.303577 47.9348 0.0356803 48.7726 0.000546263 49.636C-0.0345877 50.4994 0.164344 51.3562 0.576307 52.1159C0.98827 52.8756 1.59795 53.5098 2.34088 53.9516C3.08381 54.3934 3.93238 54.6264 4.79684 54.6258H22.248L55.4791 35.034Z" fill="white"/>
<path fill-rule="evenodd" clip-rule="evenodd" d="M86.4419 25.428L92.6443 15.8871C93.1152 15.1634 93.3819 14.3261 93.4163 13.4636C93.4507 12.601 93.2514 11.7452 92.8396 10.9864C92.4278 10.2276 91.8188 9.59396 91.0767 9.15243C90.3346 8.7109 89.4869 8.47782 88.6233 8.47778H57.7527V25.428H84.5264L57.7527 41.2066V65.9512L41.6364 50.6987L14.3364 66.7865L11.2271 71.5651H49.9388C51.9364 71.5654 53.9024 71.067 55.6584 70.115C57.4144 69.1631 58.9046 67.7877 59.9938 66.1139L67.4659 54.6257H86.5342C88.5324 54.626 90.499 54.1269 92.2551 53.174C94.0112 52.221 95.5011 50.8443 96.5893 49.1691L107.664 32.1376V26.6267L103.367 33.2332H85.6551L84.4884 35.034H102.2L94.2885 47.2002C93.4524 48.467 92.2925 49.4872 90.929 50.1549C89.5654 50.8225 88.0481 51.1133 86.5342 50.997H64.1287L68.1279 44.8624H84.5536C85.1522 44.8635 85.7416 44.7152 86.2685 44.4311C86.7953 44.147 87.2429 43.7359 87.5706 43.2352L89.7086 39.9482H77.0055L86.0512 26.0301H108.261V31.2046L108.864 30.2825V25.428H86.4419Z" fill="white"/>
<path fill-rule="evenodd" clip-rule="evenodd" d="M55.9568 45.0468V40.176L41.8916 48.464L45.066 51.4635L55.9568 45.0468Z" fill="white"/>
<path fill-rule="evenodd" clip-rule="evenodd" d="M57.7528 25.428V0L41.2241 25.428H14.9333L24.0062 34.0143L19.4481 27.2234H42.2008L55.9567 6.06953V27.2234H77.9335L55.9567 40.176V40.5177V61.7692L41.8915 48.464L16.5395 63.4019L15.8015 64.5301L15.069 65.6583L14.3364 66.7865L41.6365 50.6987L57.7528 65.9458V41.2012L84.5265 25.428H57.7528Z" fill="white"/>
<path d="M138.318 50.2865C138.322 50.8094 138.241 51.3295 138.08 51.8269C137.948 52.2472 137.723 52.6327 137.423 52.9551C136.99 53.4327 136.423 53.7675 135.795 53.9152C135.022 54.0834 134.231 54.1599 133.44 54.143H126.766V53.5409H127.308V41.2012H126.766V40.6317H134.596H134.867H135.079L135.247 40.6805C135.309 40.6832 135.37 40.6979 135.426 40.7239L135.632 40.7835C135.916 40.8679 136.183 40.998 136.425 41.1686C136.908 41.4925 137.292 41.9428 137.537 42.4704C137.803 43.0124 137.942 43.6078 137.944 44.2115C137.95 44.8272 137.809 45.4354 137.532 45.9852C137.42 46.2092 137.273 46.4142 137.097 46.5927C137.021 46.6632 136.945 46.7391 136.859 46.8097L136.604 47.0212L136.376 47.1568H136.332V46.9561C136.533 47.0343 136.724 47.1343 136.902 47.2544C137.234 47.4802 137.521 47.7652 137.749 48.0952C138.168 48.746 138.368 49.514 138.318 50.2865ZM136.262 44.2332C136.279 43.9834 136.239 43.7331 136.145 43.501C136.051 43.2689 135.905 43.0612 135.719 42.8935C135.33 42.5713 134.835 42.4033 134.33 42.4216H128.996V46.2184H134.097H134.596C134.731 46.203 134.865 46.1795 134.997 46.1479C135.117 46.1146 135.231 46.0672 135.339 46.0069C135.465 45.9379 135.583 45.8561 135.692 45.7628C135.731 45.7313 135.767 45.6968 135.801 45.6598C135.843 45.6094 135.883 45.5569 135.92 45.5025C135.996 45.3827 136.06 45.2555 136.11 45.1228C136.165 44.9903 136.205 44.852 136.229 44.7105C136.257 44.5513 136.268 44.3894 136.262 44.2278V44.2332ZM136.511 50.1997C136.525 49.7711 136.393 49.3505 136.137 49.0064C135.879 48.6786 135.533 48.4319 135.139 48.2958C134.726 48.1407 134.288 48.0616 133.847 48.0626H128.963V52.3205H133.88C134.33 52.3326 134.779 52.2796 135.214 52.1632C135.517 52.0812 135.784 51.902 135.974 51.6533C136.307 51.232 136.495 50.7147 136.511 50.178V50.1997Z" fill="white"/>
<path d="M149.779 54.7722H149.274V54.2298H139.045V53.6386H139.588V41.2229H139.045V40.6805H149.252V40.0947H149.757V43.0454H149.252V42.465H141.216V46.2618H146.642V45.7194H147.185V48.6593H146.642V48.0843H141.216V52.3693H149.258V51.8269H149.762L149.779 54.7722Z" fill="white"/>
<path d="M148.058 40.1598H146.295L144.471 38.3861L142.605 40.1598H140.809L144.499 36.3304L148.058 40.1598ZM145.66 56.1987C145.658 56.5027 145.561 56.7985 145.383 57.0449C145.29 57.1653 145.171 57.2635 145.036 57.3324C144.889 57.3991 144.73 57.4324 144.569 57.43C144.412 57.4399 144.254 57.4138 144.108 57.3536C143.963 57.2935 143.833 57.2009 143.728 57.0829C143.527 56.8331 143.423 56.5191 143.435 56.1987C143.423 55.8791 143.529 55.5661 143.733 55.32C143.834 55.1978 143.962 55.1015 144.108 55.0392C144.253 54.9769 144.411 54.9504 144.569 54.962C144.719 54.9576 144.869 54.9881 145.005 55.0512C145.142 55.1142 145.262 55.2081 145.356 55.3255C145.558 55.5713 145.665 55.8808 145.66 56.1987Z" fill="white"/>
<path d="M162.645 54.1647H159.958V53.5789H160.355L152.492 43.9674V53.5789H153.002V54.1647H150.327V53.5789H150.842V41.2012H150.327V40.6588H153.002V41.2012H152.611L160.463 50.7095V41.2012H159.92V40.6588H162.607V41.2012H162.064V53.5789H162.607L162.645 54.1647Z" fill="white"/>
<path d="M175.57 54.1376H172.906V53.5409H173.416V48.0735H165.542V53.5409H166.052V54.1159H163.372V53.5409H163.876V41.2012H163.372V40.6317H166.052V41.2012H165.542V46.2727H173.416V41.2012H172.906V40.6317H175.57V41.2012H175.027V53.5409H175.57V54.1376Z" fill="white"/>
<path d="M192.815 41.2012H192.224L187.59 53.5789H188.035V54.1647H185.023V53.5789H185.5L180.47 41.2012H179.895V40.6588H182.608V41.2012H182.272L186.51 51.751L190.476 41.2012H190.145V40.6588H192.793L192.815 41.2012Z" fill="white"/>
<path d="M196.375 54.1647H193.71V53.5789H194.253V41.2012H193.71V40.6588H196.375V41.2012H195.87V53.5789H196.375V54.1647Z" fill="white"/>
<path d="M208.042 54.7722H207.537V54.2298H197.33V53.6386H197.873V41.2229H197.33V40.6805H207.537V40.0947H208.042V43.0454H207.537V42.465H199.495V46.2618H204.878V45.7194H205.421V48.6593H204.878V48.0843H199.495V52.3693H207.537V51.8269H208.042V54.7722Z" fill="white"/>
<path d="M206.332 40.1598H204.569L202.729 38.3861L200.868 40.1598H199.066L202.762 36.3304L206.332 40.1598ZM203.939 56.1987C203.937 56.5027 203.841 56.7985 203.663 57.0449C203.569 57.1667 203.448 57.2651 203.31 57.3324C203.093 57.4271 202.852 57.4539 202.62 57.4094C202.388 57.3649 202.174 57.251 202.008 57.0829C201.806 56.8331 201.702 56.5191 201.714 56.1987C201.702 55.8791 201.808 55.5661 202.013 55.32C202.115 55.2046 202.24 55.1122 202.38 55.0488C202.521 54.9855 202.673 54.9528 202.827 54.9528C202.981 54.9528 203.133 54.9855 203.273 55.0488C203.414 55.1122 203.539 55.2046 203.641 55.32C203.836 55.5703 203.936 55.8817 203.923 56.1987H203.939Z" fill="white"/>
<path d="M220.908 54.1647H218.194V53.5789H218.59L210.728 43.9674V53.5789H211.238V54.1647H208.557V53.5789H209.1V41.2012H208.557V40.6588H211.238V41.2012H210.863L218.715 50.7095V41.2012H218.173V40.6588H220.886V41.2012H220.343V53.5789H220.886L220.908 54.1647Z" fill="white"/>
<path d="M239.357 47.428V48.0193C239.343 48.2176 239.318 48.415 239.281 48.6105C239.219 48.9951 239.127 49.3742 239.004 49.7441C238.787 50.4387 238.457 51.0929 238.027 51.6805C237.653 52.2037 237.201 52.6664 236.687 53.0528C237.566 53.5952 238.06 53.8989 238.163 53.9369C238.227 53.9279 238.285 53.8949 238.326 53.8447L238.597 53.5952L238.923 53.9369L237.539 55.6672L237.034 55.396L236.703 55.1736L235.911 54.5878L235.092 54.0074C234.744 54.0942 234.332 54.1756 233.865 54.2569C233.479 54.3154 233.089 54.3462 232.699 54.3491C231.621 54.3467 230.569 54.0238 229.676 53.4216C228.722 52.785 227.951 51.9099 227.441 50.8832C226.884 49.7938 226.601 48.5858 226.616 47.3629C226.614 46.9069 226.663 46.452 226.762 46.0069C226.86 45.5639 226.997 45.1302 227.169 44.7106C227.492 43.9082 227.962 43.1725 228.553 42.541C229.129 41.9296 229.823 41.4407 230.593 41.1036C231.376 40.7603 232.223 40.5865 233.079 40.5937H233.491L233.746 40.6263C233.85 40.6254 233.953 40.6345 234.055 40.6534C234.169 40.6534 234.289 40.6968 234.413 40.7239L234.728 40.7998L235.075 40.8975C235.262 40.96 235.443 41.0361 235.618 41.1253C236.377 41.4487 237.055 41.9358 237.604 42.5518C238.162 43.1915 238.599 43.9264 238.896 44.7214C239.204 45.5904 239.36 46.506 239.357 47.428ZM237.544 47.3955C237.551 46.7142 237.439 46.037 237.213 45.394C237 44.7989 236.68 44.2475 236.269 43.7668C235.86 43.2981 235.362 42.9147 234.804 42.6386C234.67 42.5682 234.53 42.5084 234.386 42.4596C234.24 42.4106 234.092 42.3689 233.941 42.3348C233.643 42.262 233.337 42.2256 233.03 42.2264C232.627 42.2229 232.226 42.2721 231.836 42.3728C231.453 42.485 231.088 42.6492 230.751 42.861C230.058 43.2906 229.496 43.8998 229.123 44.6238C228.915 45.0293 228.747 45.4544 228.624 45.893C228.575 46.11 228.526 46.3378 228.488 46.5765C228.45 46.8151 228.455 47.0375 228.455 47.2816C228.432 48.2939 228.653 49.2969 229.101 50.2052C229.492 50.9858 230.081 51.6499 230.81 52.1307C231.452 52.5647 232.206 52.8022 232.981 52.8141H233.057C233.211 52.8186 233.366 52.8077 233.518 52.7816L233.795 52.7219C233.584 52.4915 233.336 52.2973 233.062 52.147C232.827 52.0252 232.567 51.9602 232.303 51.9571C232.186 51.9548 232.069 51.9657 231.955 51.9897C231.858 51.9897 231.771 52.0385 231.7 52.0656L231.499 52.1524L231.342 51.5503C231.573 51.3484 231.835 51.1854 232.118 51.0676C232.372 50.9576 232.645 50.9004 232.921 50.8994H233.165L233.372 50.9374H233.534C233.609 50.954 233.681 50.9776 233.751 51.0079C234.05 51.1039 234.337 51.2312 234.609 51.3876C234.784 51.4741 234.954 51.5701 235.119 51.6751L235.482 51.93C236.855 50.8886 237.544 49.3807 237.544 47.3955Z" fill="white"/>
<path d="M251.718 41.2012H251.203V49.8308C251.205 50.2211 251.178 50.6109 251.121 50.997C251.096 51.1807 251.057 51.3621 251.002 51.5394C250.941 51.7244 250.868 51.9055 250.785 52.0818C250.619 52.4538 250.383 52.7907 250.09 53.0744C249.797 53.3357 249.456 53.5382 249.087 53.6711C248.559 53.876 248.014 54.0339 247.459 54.143L246.916 54.2297L246.373 54.284C246.11 54.3122 245.846 54.3249 245.581 54.322C244.781 54.3315 243.984 54.2125 243.221 53.9694C242.528 53.7581 241.902 53.3713 241.403 52.8466C241.063 52.5027 240.818 52.0766 240.692 51.6099C240.558 51.0653 240.496 50.5055 240.507 49.9447V41.2012H239.965V40.6587H242.689V41.2012H242.146V49.8797C242.137 50.3071 242.194 50.7333 242.314 51.1435C242.428 51.5023 242.661 51.8109 242.977 52.0167C243.15 52.1221 243.332 52.2145 243.519 52.2934C243.753 52.3859 243.992 52.4656 244.235 52.532L245.071 52.6947L245.543 52.7219H245.988C246.254 52.7219 246.531 52.7219 246.802 52.6785C247.091 52.6427 247.376 52.5828 247.654 52.4995L248.056 52.3801C248.171 52.3444 248.284 52.299 248.392 52.2445C248.566 52.1697 248.726 52.0651 248.864 51.9354C249.127 51.7167 249.324 51.4295 249.434 51.1055L249.532 50.5631C249.532 50.3353 249.564 50.1075 249.564 49.8742V41.1957H249.021V40.6533H251.708L251.718 41.2012Z" fill="white"/>
<path d="M265.317 54.1647H262.392V53.5789H262.837L261.594 50.4546H255.935L254.686 53.5789H255.083V54.1647H252.342V53.5789H252.885L257.883 41.2012H257.4V40.6588H260.173V41.2012H259.717L264.78 53.5789H265.322L265.317 54.1647ZM260.916 48.7786L258.778 42.9585L256.531 48.7786H260.916Z" fill="white"/>
<path d="M262.164 39.932H260.401L258.567 38.2668L256.695 39.932H254.898L258.588 36.3304L262.164 39.932Z" fill="white"/>
<path d="M278.047 54.1647H275.361V53.5789H275.757L267.9 43.9674V53.5789H268.41V54.1647H265.729V53.5789H266.245V41.2012H265.729V40.6588H268.41V41.2012H268.03L275.888 50.7095V41.2012H275.345V40.6588H278.031V41.2012H277.488V53.5789H278.031L278.047 54.1647Z" fill="white"/>
<path d="M296.622 41.2012H296.036L291.244 48.1548V53.5789H291.749V54.1647H289.085V53.5789H289.595V48.1548L284.206 41.2012H283.664V40.6588H286.643V41.2012H286.388L290.447 46.533L294.153 41.2012H293.898V40.6588H296.611L296.622 41.2012Z" fill="white"/>
<path d="M315.185 54.0237H309.889V52.89H310.882V31.3457L310.378 31.7145L309.802 32.0237C309.271 32.2515 308.698 32.3678 308.12 32.3654H308.066V33.4502H307.013V27.9827H308.066V29.1326C308.185 29.1326 308.31 29.1326 308.424 29.1326C308.542 29.122 308.658 29.1002 308.771 29.0676C309.015 28.9848 309.253 28.8851 309.482 28.7692C309.912 28.5383 310.276 28.2025 310.54 27.7929C310.716 27.5219 310.832 27.2169 310.882 26.8979H309.889V25.7697H315.185V26.8979H314.1V52.89H315.185V54.0237Z" fill="white"/>
<path d="M338.084 25.7697V29.7564L325.327 53.0365H326.195V54.1701H320.042V53.0365H321.208L333.852 30.5104H317.372V31.5952H316.319V25.7697H317.372V26.963H337.059V25.7697H338.084Z" fill="white"/>
<path d="M360.984 44.4122C360.967 45.3083 360.85 46.1997 360.636 47.07C360.327 48.1855 359.804 49.2301 359.095 50.1455C358.448 50.9884 357.652 51.7054 356.746 52.2609C355.792 52.8468 354.754 53.2839 353.669 53.5572C353.103 53.7019 352.528 53.8124 351.949 53.8881C351.335 53.9614 350.717 53.9976 350.098 53.9965C349.21 54.0008 348.323 53.9209 347.45 53.7579C346.616 53.5988 345.799 53.3628 345.008 53.0528C343.768 52.6187 342.598 52.0046 341.536 51.2303C341.215 50.9916 340.917 50.753 340.64 50.5251L340.032 49.9827L339.37 50.8289L338.616 50.1834L341.91 45.6435L342.681 46.3378L342.024 47.2761C342.368 47.6617 342.748 48.014 343.158 48.3284C343.572 48.6597 344.007 48.9641 344.46 49.2396C344.911 49.4946 345.464 49.782 346.126 50.0749C347.448 50.6078 348.863 50.8751 350.288 50.8614C351.495 50.8656 352.69 50.6219 353.799 50.1455C354.895 49.6794 355.836 48.912 356.512 47.9324C356.861 47.4485 357.13 46.912 357.31 46.3432C357.492 45.7362 357.581 45.1054 357.576 44.4719C357.579 43.9927 357.532 43.5146 357.435 43.0454C357.356 42.6037 357.204 42.1783 356.984 41.787C356.626 41.0562 356.098 40.422 355.443 39.9374C354.766 39.4419 354.02 39.0473 353.229 38.7658C352.494 38.5423 351.73 38.4254 350.961 38.4186C347.857 38.4186 345.605 39.2485 344.189 40.9137L344.797 41.4561L344.178 42.4053L339.37 38.4946L340.054 37.5833L340.353 37.8654V28.0153H339.354V26.9305H358.27V25.7697H359.296V31.6114H358.27V30.5266H343.663V37.3121L344.081 37.0355L345.079 36.4551C345.839 36.0722 346.637 35.7722 347.461 35.5602C348.392 35.2995 349.354 35.1663 350.321 35.1642H351.488C351.747 35.1747 352.007 35.2001 352.263 35.2401C352.46 35.2435 352.656 35.2616 352.85 35.2944C353.056 35.3323 353.273 35.3812 353.501 35.4463C354.287 35.6161 355.053 35.8688 355.785 36.2002C357.003 36.6849 358.087 37.4528 358.949 38.4403C359.673 39.2788 360.213 40.2601 360.533 41.3205L360.729 42.0907C360.802 42.3966 360.858 42.7062 360.897 43.0182C360.929 43.2135 360.951 43.4305 360.967 43.6637C360.984 43.8969 360.984 44.1302 360.984 44.4122Z" fill="white"/>
<path d="M134.118 32.962H132.675V32.6583H132.962V27.641L130.406 33.1627L127.921 27.6356V32.6583H128.193V32.962H126.738V32.6583H127.015V26.0355H126.738V25.7318H128.48V26.0355H128.241L130.412 31.0148L132.653 26.0409H132.409V25.7372H134.086V26.0409H133.809V32.6583H134.086L134.118 32.962Z" fill="white"/>
<path d="M130.406 33.8245L128.192 28.8994V32.3546H128.458V33.2658H126.472V32.3546H126.743V26.3393H126.478V25.428H128.735V26.3393H128.659L130.423 30.3422L132.23 26.3338H132.148V25.428H134.368V26.3393H134.091V32.3546H134.362V33.2658H132.376V32.3546H132.669V28.8777L130.406 33.8245ZM133.233 32.6637H133.575V26.0355H132.989L130.439 31.6928L127.943 26.0355H127.286V32.6637H127.65V26.3718L130.412 32.501L133.233 26.4044V32.6637Z" fill="white"/>
<path d="M140.673 33.0597H139.235V32.7397H139.523V26.0409H139.235V25.748H140.673V26.0409H140.402V32.7397H140.673V33.0597Z" fill="white"/>
<path d="M140.961 33.358H138.98V32.4359H139.273V26.3447H139.002V25.4497H140.982V26.3447H140.673V32.4359H140.944L140.961 33.358ZM139.81 32.7559H140.152V26.0518H139.81V32.7559Z" fill="white"/>
<path d="M151.13 33.3526H150.864V33.0434H145.736V32.7342H146.023V26.0409H145.736V25.7318H147.185V26.0409H146.892V32.0508H150.847V31.747H151.113L151.13 33.3526Z" fill="white"/>
<path d="M151.396 33.6509H150.593V33.3472H145.465V32.4359H145.752V26.3447H145.481V25.428H147.483V26.3447H147.185V31.7688H150.598V31.465H151.401L151.396 33.6509ZM146.295 32.7451H150.859V32.3546H146.642V26.0355H146.295V32.7451Z" fill="white"/>
<path d="M157.717 33.0597H156.274V32.7397H156.567V26.0409H156.274V25.748H157.717V26.0409H157.446V32.7397H157.717V33.0597Z" fill="white"/>
<path d="M157.989 33.358H156.008V32.4359H156.301L156.274 26.3447H156.008V25.4497H157.989V26.3447H157.712V32.4359H157.983L157.989 33.358ZM156.839 32.7559H157.175V26.0518H156.839V32.7559Z" fill="white"/>
<path d="M169.053 27.0606H168.771V26.7298H166.405V32.7505H166.682V33.0705H165.233V32.7505H165.526V26.7298H163.051V27.0606H162.758V25.4334H163.051V25.7426H168.771V25.4334H169.053V27.0606Z" fill="white"/>
<path d="M166.953 33.3743H164.967V32.4522H165.26V27.0281L163.317 27.0552V27.359H162.493V25.1514H163.317V25.4551H168.505V25.1568H169.319V27.3644H168.505V27.0335H166.676V32.4576H166.948L166.953 33.3743ZM165.797 32.7668H166.134V26.4206H168.782V26.0518H163.03V26.4206H165.776L165.797 32.7668Z" fill="white"/>
<path d="M180.909 33.0597H179.325V32.7397H179.564L178.896 31.0528H175.83L175.158 32.7397H175.369V33.0597H173.882V32.7397H174.186L176.899 26.0409H176.633V25.748H178.115V26.0409H177.871L180.584 32.7397H180.882L180.909 33.0597ZM178.527 30.1415L177.366 26.9956L176.151 30.1415H178.527Z" fill="white"/>
<path d="M181.176 33.358H179.054V32.4359H179.152L178.723 31.3511H176.01L175.576 32.4359H175.646V33.358H173.622V32.4359H174.018L176.487 26.3447H176.373V25.4497H178.408V26.3447H178.316L180.807 32.4359H181.197L181.176 33.358ZM179.868 32.7559H180.324L177.572 26.0518H177.16L174.447 32.7559H174.827L175.63 30.749H179.043L179.868 32.7559ZM178.929 30.4453H175.744L177.372 26.2199L178.929 30.4453ZM176.563 29.8432H178.115L177.35 27.7658L176.563 29.8432Z" fill="white"/>
<path d="M192.316 33.0434H190.737V32.7288H190.916L189.255 29.8432H186.879V32.7234H187.15V33.038H185.712V32.7234H185.983V26.041H185.712V25.7318H189.885C190.399 25.6912 190.91 25.8397 191.323 26.1494C191.539 26.3371 191.708 26.5731 191.817 26.8383C191.871 26.9733 191.913 27.1131 191.941 27.256C191.97 27.4061 191.985 27.5587 191.985 27.7116C191.987 28.0569 191.905 28.3976 191.746 28.7042C191.595 28.9994 191.373 29.2528 191.1 29.4419C190.978 29.5229 190.849 29.5936 190.715 29.6534L190.52 29.7131C190.445 29.7356 190.369 29.7519 190.292 29.7619L192.028 32.7288H192.327L192.316 33.0434ZM191.057 27.7441C191.056 27.6549 191.047 27.5659 191.03 27.4783C191.013 27.3887 190.985 27.3014 190.948 27.218C190.883 27.0619 190.776 26.9268 190.639 26.8275C190.407 26.6925 190.142 26.6266 189.874 26.6376H186.879V28.9428H189.635C189.995 28.9688 190.353 28.8712 190.65 28.6662C190.778 28.5553 190.878 28.416 190.943 28.2594C191.016 28.0974 191.055 27.9219 191.057 27.7441Z" fill="white"/>
<path d="M192.587 33.3417H190.465V32.5064L189.109 30.1469H187.144V32.4305H187.416V33.3417H185.43V32.4305H185.701V26.3447H185.435V25.428H189.874C190.458 25.381 191.038 25.5531 191.502 25.9108C191.75 26.1296 191.945 26.4024 192.072 26.7081C192.135 26.8618 192.183 27.0218 192.213 27.1854C192.247 27.3641 192.264 27.5458 192.261 27.7278C192.264 28.1256 192.171 28.5182 191.99 28.8723C191.815 29.2078 191.562 29.4963 191.252 29.713C191.116 29.8073 190.971 29.8873 190.818 29.9517H190.742L192.186 32.4196H192.609L192.587 33.3417ZM191.236 32.7396H191.681L189.803 29.534L190.221 29.4689C190.292 29.4689 190.362 29.4418 190.427 29.4201L190.596 29.3659C190.711 29.3169 190.822 29.2569 190.927 29.1869C191.156 29.0223 191.342 28.8045 191.469 28.5523C191.601 28.2916 191.668 28.0034 191.665 27.7115C191.666 27.5807 191.655 27.4499 191.632 27.321C191.606 27.1989 191.57 27.0791 191.523 26.963C191.433 26.7418 191.292 26.5449 191.111 26.3881C190.743 26.1202 190.29 25.995 189.836 26.0355H186.254V32.7342H186.618V29.5503H189.413L191.236 32.7396ZM189.635 29.2466H186.607V26.3338H189.863C190.178 26.3234 190.489 26.4044 190.758 26.5671C190.946 26.7045 191.091 26.8927 191.176 27.1095C191.223 27.2137 191.257 27.3229 191.279 27.4349C191.301 27.5438 191.312 27.6547 191.312 27.7658C191.311 27.9879 191.265 28.2076 191.176 28.4113C191.096 28.6193 190.968 28.8052 190.802 28.9537C190.457 29.1788 190.046 29.2819 189.635 29.2466ZM187.144 28.6391H189.635C189.937 28.6645 190.239 28.5881 190.492 28.4221C190.585 28.3401 190.657 28.2381 190.704 28.1238C190.756 28.0039 190.784 27.8748 190.786 27.7441C190.791 27.6791 190.791 27.6138 190.786 27.5488C190.769 27.4822 190.747 27.4169 190.72 27.3536C190.678 27.2444 190.604 27.15 190.509 27.0824C190.319 26.9788 190.106 26.9282 189.89 26.9359H187.177L187.144 28.6391Z" fill="white"/>
<path d="M204.199 26.0409H203.879L201.286 29.8052V32.7397H201.557V33.0597H200.119V32.7397H200.39V29.8052L197.476 26.0409H197.178V25.748H198.806V26.0409H198.665L200.862 28.9265L202.87 26.0409H202.729V25.748H204.205L204.199 26.0409Z" fill="white"/>
<path d="M201.828 33.358H199.848V32.4359H200.125V29.9137L197.357 26.3447H196.907V25.4497H199.077V26.1114L200.852 28.4492L202.48 26.1386V25.4497H204.487V26.3447H204.032L201.579 29.9029V32.4359H201.85L201.828 33.358ZM200.662 32.7559H201.02V29.7184L203.532 26.0681H203.196L200.868 29.4201L198.312 26.0681H197.84L200.662 29.7076V32.7559Z" fill="white"/>
<path d="M221.727 33.0434H220.284V32.7288H220.56V29.7618H216.301V32.7288H216.577V33.0434H215.123V32.7288H215.4V26.0409H215.123V25.7318H216.577V26.0409H216.301V28.7855H220.56V26.0409H220.284V25.7318H221.727V26.0409H221.439V32.7288H221.727V33.0434Z" fill="white"/>
<path d="M221.998 33.3417H220.018V32.4305H220.294V30.0602H216.566V32.4305H216.832V33.3417H214.846V32.4305H215.118V26.3447H214.852V25.428H216.838V26.3447H216.561V28.4818H220.289V26.3447H220.023V25.428H222.004V26.3447H221.711V32.4305H221.982L221.998 33.3417ZM220.831 32.7397H221.168V26.0355H220.831V29.0784H216.029V26.0301H215.666V32.7288H216.029V29.4744H220.831V32.7397Z" fill="white"/>
<path d="M234.267 29.3767C234.276 29.895 234.18 30.4097 233.985 30.89C233.898 31.1199 233.783 31.3385 233.643 31.5409C233.507 31.7357 233.352 31.9173 233.182 32.0833C232.827 32.4142 232.413 32.6755 231.961 32.8535C231.718 32.9389 231.47 33.006 231.218 33.0542C230.962 33.1027 230.702 33.1282 230.442 33.1302C230.176 33.1318 229.911 33.1101 229.649 33.0651C229.397 33.0191 229.151 32.9426 228.917 32.8372C228.457 32.6463 228.039 32.3682 227.685 32.0182C227.516 31.8509 227.362 31.6695 227.224 31.4758C227.164 31.3728 227.099 31.2697 227.045 31.1612C226.984 31.0505 226.93 30.9364 226.882 30.8195C226.693 30.3658 226.597 29.8789 226.6 29.3876C226.599 28.3985 226.989 27.4492 227.685 26.746C228.041 26.3959 228.461 26.1178 228.922 25.927L229.275 25.8022L229.644 25.71C229.905 25.6603 230.17 25.6349 230.436 25.6341C230.956 25.6301 231.472 25.7259 231.955 25.9162C232.41 26.0823 232.823 26.3451 233.166 26.6864C233.513 27.0253 233.788 27.4313 233.974 27.8797C234.171 28.3542 234.27 28.8632 234.267 29.3767ZM233.296 29.3767C233.303 28.8704 233.188 28.3698 232.959 27.9176C232.735 27.4878 232.395 27.129 231.977 26.8816C231.752 26.7518 231.512 26.6515 231.261 26.5833C230.994 26.5127 230.718 26.478 230.442 26.4802C230.024 26.4731 229.609 26.5487 229.221 26.7026C228.878 26.8391 228.57 27.0503 228.32 27.321C228.08 27.5936 227.895 27.9105 227.777 28.2539C227.647 28.6138 227.58 28.9939 227.582 29.3767C227.574 29.8855 227.691 30.3884 227.924 30.8412C228.15 31.2728 228.492 31.6332 228.911 31.8826C229.375 32.1522 229.905 32.2874 230.442 32.2732C230.972 32.2838 231.495 32.1507 231.955 31.888C232.376 31.6368 232.72 31.2747 232.949 30.8412C233.182 30.3885 233.301 29.8858 233.296 29.3767Z" fill="white"/>
<path d="M230.442 33.4339C230.162 33.4334 229.882 33.4098 229.606 33.3634C229.335 33.3136 229.071 33.2316 228.819 33.1194C228.328 32.9155 227.882 32.6169 227.506 32.2407C227.323 32.0577 227.158 31.8579 227.012 31.644C226.942 31.5301 226.877 31.4216 226.811 31.3023C226.746 31.183 226.692 31.0636 226.638 30.9389C226.229 29.9376 226.229 28.8159 226.638 27.8146C226.837 27.327 227.132 26.8844 227.506 26.5128C227.887 26.1399 228.334 25.8418 228.825 25.6341L229.584 25.4063C230.407 25.2377 231.261 25.3112 232.042 25.6179C232.53 25.8 232.974 26.0828 233.345 26.4477C233.527 26.6271 233.693 26.8232 233.839 27.0336C233.989 27.2551 234.116 27.4913 234.218 27.7387C234.427 28.2558 234.534 28.8083 234.533 29.3659C234.538 29.9234 234.433 30.4764 234.224 30.9931C234.123 31.2391 233.999 31.4751 233.855 31.6982C233.705 31.909 233.537 32.1051 233.35 32.284C232.973 32.6428 232.529 32.9231 232.042 33.1085C231.786 33.2011 231.523 33.2737 231.256 33.3255C230.988 33.3876 230.716 33.4239 230.442 33.4339ZM230.442 25.927C230.19 25.9268 229.94 25.9504 229.693 25.9976L229.004 26.2037C228.581 26.3819 228.195 26.6397 227.87 26.963C227.554 27.2721 227.303 27.6408 227.132 28.0478C226.959 28.462 226.87 28.9064 226.871 29.355C226.871 29.8031 226.958 30.247 227.126 30.6623C227.17 30.7653 227.224 30.8738 227.278 30.9768C227.329 31.0756 227.385 31.1716 227.446 31.2643C227.568 31.4466 227.708 31.6157 227.864 31.7687C228.192 32.0987 228.583 32.3589 229.015 32.5335C229.23 32.6342 229.458 32.7054 229.693 32.7451C230.181 32.8344 230.681 32.8344 231.169 32.7451C231.409 32.7038 231.645 32.6402 231.874 32.5552C232.293 32.394 232.676 32.1527 233.003 31.8447C233.164 31.6948 233.308 31.5274 233.432 31.3457C233.556 31.1607 233.66 30.9624 233.741 30.7545C233.92 30.3137 234.008 29.8415 234.001 29.3659C234.004 28.8919 233.913 28.4221 233.735 27.9828C233.65 27.7767 233.542 27.5803 233.415 27.397C233.295 27.2142 233.155 27.0451 232.997 26.8925C232.675 26.5802 232.293 26.3366 231.874 26.1765C231.416 26.0058 230.93 25.9213 230.442 25.927ZM230.442 32.5715C229.86 32.5859 229.285 32.4395 228.781 32.1484C228.322 31.8684 227.947 31.4691 227.696 30.9931C227.439 30.4896 227.311 29.9308 227.321 29.3659C227.32 28.9445 227.391 28.5261 227.533 28.1292C227.664 27.7492 227.868 27.399 228.135 27.0986C228.41 26.8019 228.747 26.5702 229.123 26.4206C229.816 26.1538 230.574 26.1083 231.294 26.2905C231.568 26.3657 231.833 26.4751 232.08 26.6159C232.543 26.8922 232.919 27.2924 233.166 27.7712C233.412 28.2726 233.54 28.8237 233.54 29.3822C233.54 29.9407 233.412 30.4918 233.166 30.9931C232.917 31.4721 232.542 31.8736 232.08 32.1539C231.582 32.4386 231.016 32.583 230.442 32.5715ZM230.442 26.7786C230.056 26.7723 229.672 26.8424 229.313 26.9847C229.007 27.1014 228.732 27.287 228.51 27.5271C228.296 27.7674 228.132 28.0476 228.027 28.3516C227.912 28.6775 227.854 29.0204 227.853 29.3659C227.846 29.8216 227.951 30.2722 228.157 30.6785C228.359 31.0625 228.664 31.3833 229.036 31.606C229.465 31.8358 229.944 31.9561 230.431 31.9561C230.917 31.9561 231.396 31.8358 231.825 31.606C232.204 31.3848 232.512 31.0615 232.715 30.6731C232.915 30.2653 233.019 29.8172 233.019 29.3632C233.019 28.9091 232.915 28.4611 232.715 28.0533C232.515 27.6711 232.213 27.3519 231.842 27.1312C231.636 27.0117 231.415 26.9205 231.185 26.86C230.942 26.8006 230.692 26.7733 230.442 26.7786Z" fill="white"/>
<path d="M245.657 30.6947C245.673 31.1915 245.5 31.6759 245.174 32.0508C244.838 32.4204 244.411 32.6969 243.937 32.8535C243.441 33.0263 242.92 33.1143 242.396 33.1139H242.076H242.005C241.91 33.1102 241.815 33.0975 241.723 33.0759L241.5 33.0217C241.251 32.9683 241.008 32.892 240.773 32.7939C240.659 32.745 240.551 32.6908 240.437 32.6311L240.269 32.5389L240.079 32.4304L239.444 32.0508L239.27 32.3545L239.021 32.2135L239.737 30.8195L239.97 30.9714L239.829 31.248L239.948 31.3402L240.079 31.427L240.355 31.6006L240.697 31.7904C240.822 31.8501 240.952 31.9152 241.093 31.9694L241.538 32.1321L241.783 32.1918L242 32.246L242.217 32.2732H242.428C242.626 32.2749 242.824 32.2622 243.02 32.2352C243.204 32.2079 243.386 32.1643 243.562 32.105C243.872 32.0152 244.157 31.8577 244.398 31.644C244.588 31.4812 244.713 31.2562 244.751 31.0093V30.8358C244.756 30.6564 244.696 30.4812 244.583 30.3422C244.451 30.2017 244.284 30.0987 244.1 30.0439L243.769 29.9679C243.647 29.9406 243.524 29.9207 243.4 29.9083L242.917 29.8649H242.374C241.956 29.8704 241.538 29.8359 241.126 29.7618L240.849 29.6967C240.768 29.6765 240.688 29.6511 240.61 29.6208C240.46 29.5705 240.313 29.5107 240.171 29.4418C239.91 29.3092 239.692 29.1063 239.541 28.856L239.449 28.6662L239.384 28.46C239.345 28.3206 239.324 28.1764 239.324 28.0315V27.9014C239.32 27.8581 239.32 27.8144 239.324 27.7712C239.324 27.7712 239.324 27.7224 239.324 27.6844C239.324 27.6464 239.324 27.603 239.362 27.5542C239.432 27.24 239.573 26.946 239.774 26.6948C239.976 26.4437 240.232 26.2423 240.524 26.106C240.669 26.0389 240.817 25.9792 240.969 25.927C241.023 25.9048 241.079 25.8866 241.137 25.8727L241.441 25.786C241.758 25.7163 242.082 25.6799 242.407 25.6775C242.586 25.6775 242.759 25.6775 242.949 25.7046L243.193 25.7371H243.324C243.363 25.7413 243.401 25.7504 243.438 25.7643C243.505 25.7741 243.573 25.7886 243.638 25.8077L243.834 25.8619C243.954 25.893 244.07 25.9366 244.181 25.9921L244.344 26.0572L244.593 26.1765L245.169 26.4477L245.315 26.1711L245.548 26.3067L244.848 27.7278L244.621 27.5759L244.751 27.2993L244.577 27.1799L244.36 27.0552L244.078 26.9196L243.741 26.784L243.345 26.6755L242.917 26.5942H242.7H242.477C242.178 26.5906 241.88 26.6179 241.587 26.6755C241.457 26.6969 241.33 26.7315 241.207 26.7786L241.028 26.8382L240.849 26.925C240.652 27.0154 240.482 27.1556 240.355 27.3318C240.245 27.4912 240.184 27.6801 240.182 27.8742V27.9339C240.178 28.0495 240.206 28.164 240.263 28.2648C240.331 28.3692 240.422 28.4565 240.529 28.5197C240.762 28.6511 241.018 28.7376 241.283 28.7746L241.875 28.8506C242.1 28.8748 242.326 28.8875 242.553 28.8885C242.716 28.8885 242.879 28.8885 243.041 28.8885L243.378 28.9211H243.611C243.66 28.9211 243.801 28.9482 244.04 28.9916L244.192 29.0241L244.355 29.0621L244.512 29.1109L244.664 29.176C244.756 29.2102 244.844 29.2557 244.924 29.3116C245.004 29.3638 245.077 29.4258 245.141 29.496C245.463 29.8131 245.648 30.2432 245.657 30.6947Z" fill="white"/>
<path d="M242.396 33.4176H241.999L241.679 33.3688C241.597 33.3537 241.515 33.3337 241.435 33.3092C241.178 33.2488 240.926 33.169 240.681 33.0705C240.558 33.0193 240.439 32.9613 240.323 32.8969C240.286 32.8832 240.252 32.865 240.22 32.8427L239.536 32.4413L239.368 32.7396L238.646 32.3328L239.644 30.3964L240.339 30.8629L240.193 31.1449L240.817 31.5138C240.925 31.568 241.05 31.6277 241.186 31.6819L242.059 31.9477H242.238C242.488 31.9656 242.739 31.9565 242.987 31.9206C243.157 31.8956 243.324 31.8556 243.486 31.8013C243.76 31.7224 244.012 31.5834 244.224 31.3945C244.362 31.28 244.454 31.1204 244.485 30.9443V30.8195C244.488 30.7124 244.451 30.6079 244.382 30.5266C244.28 30.4268 244.155 30.3541 244.018 30.3151L243.714 30.2445C243.602 30.2207 243.487 30.2044 243.372 30.1957L242.385 30.1306C241.953 30.1356 241.523 30.0975 241.099 30.0167L240.811 29.9517L240.551 29.8703C240.392 29.8187 240.238 29.7552 240.089 29.6805C239.78 29.5238 239.52 29.2832 239.341 28.9862L239.151 28.5306C239.103 28.3538 239.079 28.1713 239.08 27.9882V27.858C239.073 27.7913 239.073 27.724 239.08 27.6573V27.5813C239.094 27.5186 239.112 27.4569 239.134 27.3969C239.212 27.0446 239.369 26.7148 239.594 26.4327C239.819 26.1506 240.105 25.9238 240.431 25.7697C240.6 25.6938 240.757 25.6341 240.903 25.5799L241.077 25.5202L241.397 25.4334C241.916 25.3217 242.449 25.2924 242.976 25.3466L243.307 25.3846C243.376 25.3914 243.443 25.4059 243.508 25.428L243.703 25.4714L243.915 25.5256C244.043 25.5646 244.168 25.6117 244.289 25.6666L245.06 26.0246L245.212 25.7263L245.923 26.1385L244.957 28.1021L244.262 27.641L244.398 27.3698L243.975 27.1528L243.655 27.0227L242.683 26.8274H242.482C242.2 26.8253 241.919 26.8508 241.641 26.9033C241.525 26.9262 241.411 26.957 241.299 26.9955L241.12 27.0606C241.07 27.0806 241.021 27.1042 240.974 27.1311C240.813 27.1992 240.674 27.3098 240.572 27.4512C240.502 27.5535 240.462 27.674 240.458 27.7983V27.8959C240.455 27.9521 240.466 28.0081 240.491 28.0586C240.537 28.1276 240.598 28.1852 240.67 28.2268C240.875 28.3342 241.097 28.4058 241.327 28.4383L241.907 28.5089C242.26 28.5522 242.672 28.5089 243.074 28.5739L243.617 28.6173C243.77 28.6327 243.922 28.6562 244.072 28.6878L244.23 28.7204L244.42 28.7692L244.582 28.818L244.756 28.894C244.861 28.9336 244.961 28.9846 245.055 29.0458C245.148 29.112 245.235 29.1864 245.315 29.2682C245.665 29.6522 245.859 30.1534 245.858 30.6731C245.882 31.247 245.688 31.8088 245.315 32.246C244.946 32.6448 244.484 32.945 243.969 33.1193C243.464 33.3027 242.933 33.4034 242.396 33.4176ZM242.113 32.8101H242.347C242.86 32.8152 243.37 32.7326 243.855 32.566C244.288 32.4243 244.676 32.174 244.984 31.8392C245.26 31.5237 245.404 31.1137 245.386 30.6948C245.386 30.3348 245.25 29.988 245.006 29.7238C244.956 29.6701 244.899 29.6227 244.838 29.5828C244.774 29.5389 244.705 29.5042 244.631 29.4798L244.485 29.4147C244.441 29.3984 244.395 29.3858 244.349 29.3767L244.197 29.3333L244.051 29.3062C243.924 29.2759 243.795 29.2542 243.665 29.2411L243.074 29.1977C242.662 29.1489 242.255 29.1977 241.902 29.1326L241.31 29.0567C241.013 29.0164 240.726 28.9207 240.464 28.7746C240.313 28.6839 240.185 28.5596 240.089 28.4112C240.011 28.274 239.97 28.1189 239.97 27.961V27.858C239.966 27.5899 240.044 27.327 240.193 27.104C240.347 26.8901 240.555 26.7201 240.795 26.6104C240.858 26.5714 240.926 26.5387 240.996 26.5128L241.191 26.4423C241.323 26.3939 241.459 26.3575 241.598 26.3338C241.905 26.2718 242.218 26.2427 242.531 26.247H242.998L243.861 26.4477L244.523 26.7352L244.935 26.9901L245.098 26.6701L244.143 26.2307C244.041 26.1792 243.934 26.1392 243.823 26.1114L243.638 26.0572C243.576 26.0403 243.512 26.0277 243.448 26.0192L242.976 25.9433C242.501 25.8983 242.022 25.9257 241.555 26.0246L241.278 26.1006L241.126 26.1494C240.979 26.2036 240.833 26.2579 240.686 26.323C240.435 26.4417 240.215 26.6163 240.042 26.8335C239.868 27.0507 239.747 27.3047 239.688 27.5759C239.688 27.641 239.661 27.6627 239.655 27.6844V27.9719C239.653 28.0855 239.667 28.1989 239.699 28.3082L239.84 28.6553C239.962 28.8503 240.137 29.0064 240.344 29.1055C240.474 29.1717 240.608 29.2279 240.746 29.2737L240.968 29.3442L241.234 29.4038C241.63 29.4759 242.032 29.5104 242.434 29.5069L243.459 29.572C243.606 29.572 243.736 29.6099 243.855 29.6316L244.192 29.713C244.427 29.7815 244.64 29.9105 244.81 30.0873C244.976 30.2867 245.064 30.5388 245.06 30.7978V30.9714C245.018 31.3034 244.858 31.6094 244.61 31.8338C244.343 32.0818 244.024 32.2671 243.676 32.3762C243.487 32.4386 243.293 32.4839 243.096 32.5118C242.81 32.5523 242.521 32.5632 242.233 32.5444L242.005 32.5172L241.517 32.3979L241.044 32.2298C240.893 32.1647 240.751 32.105 240.627 32.0399L239.845 31.5626C239.804 31.5405 239.766 31.5132 239.731 31.4812L239.59 31.7524L240.518 32.3328C240.624 32.3892 240.733 32.4399 240.844 32.4847C241.066 32.5792 241.297 32.6536 241.533 32.7071L241.739 32.7559C241.819 32.7731 241.901 32.784 241.983 32.7884L242.113 32.8101Z" fill="white"/>
<path d="M256.581 27.6899V27.858V28.0207C256.572 28.0981 256.556 28.1744 256.532 28.2485C256.532 28.2974 256.532 28.3407 256.499 28.3733L256.456 28.5035C256.429 28.5794 256.396 28.6553 256.358 28.7367C256.322 28.8156 256.28 28.8917 256.233 28.9645C256.184 29.0296 256.13 29.1055 256.06 29.1869C255.855 29.4075 255.6 29.575 255.316 29.6751C254.968 29.799 254.6 29.8578 254.231 29.8486H251.697V32.7397H251.99V33.0597H250.536V32.7397H250.829V26.0409H250.546V25.748H254.513C255.025 25.7109 255.533 25.8528 255.951 26.1494C256.163 26.3355 256.327 26.57 256.429 26.8329C256.531 27.1069 256.583 27.3973 256.581 27.6899ZM255.674 27.7495C255.677 27.5637 255.641 27.3792 255.571 27.2071C255.502 27.046 255.391 26.9058 255.251 26.8003C255.151 26.7346 255.041 26.6852 254.926 26.6539L254.665 26.6267H254.269H251.702V28.932H254.269C254.627 28.9533 254.981 28.8561 255.278 28.6553C255.409 28.5443 255.512 28.405 255.581 28.2481C255.649 28.0912 255.681 27.9207 255.674 27.7495Z" fill="white"/>
<path d="M252.261 33.358H250.286V32.4359H250.573V26.3447H250.286V25.4497H254.524C255.092 25.4108 255.657 25.572 256.119 25.9054C256.363 26.1262 256.55 26.4037 256.662 26.7135C256.783 27.0249 256.845 27.3558 256.846 27.6899V27.858V28.0533C256.837 28.1493 256.817 28.2439 256.786 28.3353L256.754 28.4655C256.754 28.5143 256.721 28.5631 256.7 28.6174C256.671 28.709 256.635 28.7979 256.591 28.8832C256.548 28.9723 256.501 29.0592 256.45 29.1435C256.396 29.2195 256.331 29.3008 256.255 29.393C256.017 29.6383 255.725 29.8241 255.403 29.9354C255.033 30.0646 254.644 30.1271 254.252 30.1199H251.968V32.4088H252.234L252.261 33.358ZM251.094 32.7559H251.431V29.5612H254.236C254.568 29.5689 254.899 29.5174 255.213 29.4093C255.457 29.3213 255.676 29.1763 255.853 28.9862C255.907 28.9273 255.956 28.8638 256 28.7964C256.039 28.7376 256.073 28.676 256.103 28.612C256.138 28.5487 256.165 28.4813 256.184 28.4113L256.255 28.1835C256.275 28.1295 256.288 28.0729 256.293 28.0153C256.293 27.9394 256.293 27.8797 256.293 27.8255V27.7061C256.292 27.4559 256.246 27.2077 256.157 26.9739C256.071 26.7546 255.933 26.5593 255.755 26.4044C255.383 26.1508 254.935 26.0321 254.486 26.0681H251.072L251.094 32.7559ZM254.269 29.2466H251.431V26.3339L254.952 26.3773C255.145 26.4175 255.325 26.5049 255.475 26.6318C255.626 26.7586 255.743 26.921 255.815 27.1041C255.899 27.3107 255.941 27.5319 255.94 27.755C255.949 27.9732 255.909 28.1907 255.821 28.3909C255.734 28.5911 255.602 28.7687 255.435 28.9103C255.093 29.1466 254.684 29.2647 254.269 29.2466ZM251.968 28.6391H254.269C254.571 28.6613 254.872 28.5831 255.126 28.4167C255.221 28.3357 255.295 28.2336 255.343 28.1187C255.391 28.0038 255.411 27.8792 255.403 27.755C255.406 27.619 255.38 27.4839 255.327 27.359C255.278 27.2442 255.2 27.1448 255.099 27.0715C255.026 27.0235 254.945 26.9903 254.86 26.9739L254.263 26.9359H251.968V28.6391Z" fill="white"/>
<path d="M263.195 33.0597H261.752V32.7397H262.045V26.0409H261.752V25.748H263.195V26.0409H262.919V32.7397H263.195V33.0597Z" fill="white"/>
<path d="M263.461 33.358H261.48V32.4359H261.773V26.3447H261.502V25.4497H263.483V26.3447H263.211V32.4359H263.477L263.461 33.358ZM262.311 32.7559H262.653V26.0518H262.311V32.7559Z" fill="white"/>
<path d="M274.525 27.0606H274.249V26.7298H271.883V32.7505H272.154V33.0705H270.711V32.7505H271.004V26.7298H268.524V27.0606H268.236V25.4334H268.524V25.7426H274.249V25.4334H274.525V27.0606Z" fill="white"/>
<path d="M272.425 33.3743H270.439V32.4522H270.732V27.0281L268.795 27.0552V27.359H267.965V25.1514H268.795V25.4551H273.977V25.1568H274.797V27.3644H273.977V27.0335H272.149V32.4576H272.42L272.425 33.3743ZM271.269 32.7668H271.611V26.4206H274.259V26.0518H268.502V26.4206H271.248L271.269 32.7668Z" fill="white"/>
<path d="M286.382 33.0597H284.798V32.7397H285.042L284.369 31.0528H281.303L280.63 32.7397H280.847V33.0597H279.36V32.7397H279.664L282.377 26.0409H282.117V25.748H283.615V26.0409H283.37L286.1 32.7397H286.393L286.382 33.0597ZM284 30.1415L282.844 26.9956L281.629 30.1415H284Z" fill="white"/>
<path d="M286.642 33.358H284.521V32.4359H284.618L284.184 31.3511H281.471L281.037 32.4359H281.108V33.358H279.083V32.4359H279.485L281.932 26.3447H281.818V25.4497H283.859V26.3447H283.761L286.257 32.4359H286.642V33.358ZM285.329 32.7559H285.79L283.045 26.0518H282.638L279.925 32.7559H280.304L281.102 30.749H284.515L285.329 32.7559ZM284.39 30.4453H281.216L282.844 26.2199L284.39 30.4453ZM282.025 29.8432H283.587L282.828 27.7658L282.025 29.8432Z" fill="white"/>
<path d="M296.567 33.3526H296.307V33.0434H291.179V32.7342H291.466V26.0409H291.179V25.7318H292.644V26.0409H292.351V32.0508H296.307V31.747H296.567V33.3526Z" fill="white"/>
<path d="M296.839 33.6509H296.036V33.3472H290.908V32.4359H291.195V26.3447H290.924V25.428H292.926V26.3447H292.612V31.7688H296.025V31.465H296.828L296.839 33.6509ZM291.733 32.7451H296.302V32.3546H292.069V26.0355H291.716L291.733 32.7451Z" fill="white"/>
</g>
<defs>
<clipPath id="clip0_12_2403">
<rect width="361" height="88" fill="white"/>
</clipPath>
</defs>
</svg>
